<svg width="20" height="20" viewBox="0 0 20 20" fill="none" xmlns="http://www.w3.org/2000/svg">
<g clip-path="url(#clip0)">
<path d="M19.9364 11.3192C19.8356 11.192 19.6511 11.1708 19.5239 11.2715L18.9481 11.7281L14.2941 5.61761L16.9547 3.91C17.0911 3.82242 17.1308 3.64086 17.0432 3.50442C16.9556 3.36797 16.7741 3.32836 16.6376 3.41594L13.7094 5.29543C13.5673 5.3866 13.5319 5.58585 13.6344 5.72031L14.1673 6.42003L13.7883 6.71011L12.2839 6.21304C12.2544 6.20343 12.2228 6.19823 12.1918 6.19823H8.74755C8.61286 6.19823 8.49544 6.28991 8.46278 6.42058L8.26896 7.19581L7.77974 6.98983C7.73302 6.97015 7.68193 6.96296 7.63173 6.96882L6.27088 7.12819L5.8085 6.85976L6.2483 6.09804C6.32822 5.95952 6.27924 5.77695 6.14088 5.69706L0.440353 2.40579C0.299845 2.3247 0.120354 2.37282 0.0393777 2.51321C-0.0416767 2.6536 0.00640907 2.83313 0.146799 2.91419L4.61432 5.49351L0.758633 12.1718L0.440353 11.9881C0.299845 11.9069 0.120354 11.9551 0.0393777 12.0955C-0.0416767 12.2359 0.00640907 12.4154 0.146799 12.4965L1.698 13.3921C1.83664 13.4721 2.01914 13.423 2.09898 13.2847L2.32343 12.8959L2.95667 13.2336C2.75011 13.6341 2.77046 14.1339 3.05214 14.5232C3.29296 14.856 3.67022 15.0329 4.05264 15.0329C4.18026 15.0329 4.30842 15.0129 4.43233 14.9727C4.43311 15.2348 4.51643 15.4868 4.67487 15.6972C4.91545 16.0168 5.28725 16.1861 5.66299 16.1861C5.78854 16.1861 5.91455 16.1671 6.03623 16.1286C6.03951 16.3736 6.11517 16.6199 6.26939 16.833C6.46244 17.0998 6.74783 17.2755 7.07294 17.3276C7.13904 17.3383 7.20517 17.3435 7.27083 17.3435C7.39829 17.3435 7.52396 17.3236 7.64419 17.285C7.64767 17.5364 7.72763 17.7802 7.87806 17.988C8.0711 18.2548 8.35649 18.4305 8.68161 18.4826C8.7477 18.4932 8.81384 18.4985 8.8795 18.4985C9.13688 18.4985 9.38704 18.418 9.59958 18.2641L10.2844 17.7686C10.4326 17.6614 10.5521 17.526 10.6384 17.3713L11.8432 18.028C12.0268 18.1281 12.2282 18.1789 12.4316 18.1789C12.5485 18.1789 12.6662 18.1621 12.7815 18.1281C13.0974 18.0351 13.3582 17.8247 13.5157 17.5355C13.6386 17.3101 13.687 17.0579 13.6584 16.8081C13.7321 16.8216 13.8063 16.8283 13.8801 16.8283C14.3172 16.8283 14.7413 16.5957 14.9647 16.1857C15.0905 15.955 15.1343 15.7014 15.1066 15.4582C15.1805 15.4718 15.2549 15.4785 15.329 15.4785C15.7661 15.4785 16.1902 15.2459 16.4136 14.8359C16.5364 14.6107 16.5848 14.3586 16.5563 14.1089C16.6296 14.1225 16.7038 14.1295 16.7784 14.1295C16.8954 14.1295 17.013 14.1127 17.1283 14.0788C17.4442 13.9857 17.705 13.7753 17.8626 13.4861C18.0202 13.197 18.0558 12.8638 17.9628 12.5478C17.9404 12.4719 17.9111 12.3993 17.8758 12.3304L18.3906 11.9649L18.6626 12.322C18.7607 12.4508 18.9515 12.4749 19.0786 12.3741L19.8889 11.7315C20.0159 11.6308 20.0372 11.4462 19.9364 11.3192ZM1.73738 12.7369L1.26707 12.4654L5.12276 5.78706L5.59307 6.05863L1.73738 12.7369ZM4.42948 14.3236C4.14108 14.5324 3.73651 14.4676 3.52776 14.1791C3.31905 13.8906 3.38393 13.486 3.67241 13.2773L5.74893 11.7748C5.86428 11.6914 5.99697 11.651 6.1283 11.651C6.32162 11.651 6.51201 11.7384 6.63966 11.9047C6.85849 12.1897 6.79685 12.6106 6.50619 12.8211L4.42948 14.3236ZM6.0381 15.4786C5.75506 15.6834 5.35385 15.6231 5.14385 15.3441C4.92627 15.0552 5.01006 14.6282 5.29807 14.4198L6.85017 13.2968C6.90666 13.2592 6.95888 13.2195 7.02216 13.1927C7.1122 13.1545 7.2108 13.1371 7.30849 13.1425C7.49544 13.1529 7.67048 13.247 7.78439 13.3952C8.00321 13.6802 7.94161 14.1012 7.65091 14.3117L6.0381 15.4786ZM7.64673 16.6335C7.50701 16.7347 7.33626 16.7754 7.16591 16.748C6.9956 16.7207 6.84611 16.6287 6.74498 16.4889C6.53634 16.2005 6.60107 15.7963 6.88919 15.5875C6.88919 15.5875 7.99513 14.7872 7.99524 14.7871L8.03837 14.7559C8.32349 14.5497 8.71473 14.6067 8.92911 14.8858C9.14797 15.1709 9.08626 15.5919 8.79544 15.8023L7.64673 16.6335ZM10.2007 16.8629C10.1753 17.0371 10.0828 17.1898 9.9402 17.293L9.25536 17.7885C8.97005 17.995 8.55977 17.9289 8.3536 17.6439C8.14649 17.3577 8.21399 16.9494 8.49821 16.7421L9.13962 16.2781L9.18309 16.2466C9.46411 16.0433 9.86274 16.1016 10.0738 16.3764C10.181 16.516 10.2261 16.6888 10.2007 16.8629ZM17.3471 13.2051C17.1788 13.5139 16.7803 13.6317 16.471 13.463L13.0772 11.6132C12.9348 11.5357 12.7565 11.5881 12.6789 11.7305C12.6014 11.8728 12.6538 12.0511 12.7962 12.1287L15.6401 13.6788C15.9528 13.8493 16.0685 14.2423 15.8981 14.5549C15.7277 14.8675 15.3347 14.9834 15.022 14.8129L12.1364 13.24C11.9941 13.1625 11.8158 13.215 11.7382 13.3573C11.6606 13.4997 11.7131 13.6779 11.8555 13.7555L14.1917 15.0289C14.504 15.1995 14.6195 15.5923 14.4492 15.9048C14.2809 16.2135 13.8825 16.3314 13.5731 16.1627L11.1272 14.8296C10.9848 14.752 10.8066 14.8045 10.729 14.9468C10.6514 15.0892 10.7039 15.2675 10.8462 15.3451L12.7422 16.3785C13.0511 16.5468 13.1688 16.9453 13.0002 17.2546C12.8319 17.5635 12.4335 17.6812 12.1241 17.5126L10.7942 16.7877C10.7989 16.5107 10.7111 16.2425 10.5394 16.0189C10.3088 15.7186 9.97094 15.553 9.6225 15.536C9.62801 15.51 9.63305 15.4837 9.63692 15.4571C9.68536 15.1246 9.59938 14.7948 9.39473 14.5283C9.16407 14.228 8.82622 14.0624 8.47778 14.0455C8.48329 14.0195 8.48833 13.9932 8.4922 13.9665C8.54063 13.634 8.45466 13.3042 8.25001 13.0377C8.01935 12.7374 7.6815 12.5718 7.33306 12.5549C7.33857 12.5289 7.34361 12.5026 7.34747 12.476C7.39591 12.1435 7.30994 11.8136 7.10529 11.5472C6.69607 11.0143 5.949 10.9055 5.40479 11.2993L3.35624 12.7814L2.6171 12.3872L5.5149 7.36807L6.06053 7.68487C6.11541 7.71674 6.1792 7.72987 6.24205 7.72257L7.62314 7.56081L8.12481 7.77206L7.8365 8.92541C7.83071 8.94869 7.82775 8.9726 7.82775 8.99662V11.5015C7.82775 12.354 8.5213 13.0475 9.37372 13.0475C10.2262 13.0475 10.9197 12.3539 10.9197 11.5015V9.0808L10.973 8.99545L17.089 12.329C17.3979 12.4973 17.5157 12.8956 17.3471 13.2051ZM17.4871 11.8862C17.4497 11.8601 17.4108 11.8356 17.3701 11.8135L11.2848 8.49662L11.5106 8.13542C11.5965 7.99792 11.5547 7.81682 11.4172 7.73092C11.2799 7.64507 11.0986 7.68678 11.0127 7.82428L10.3773 8.84104C10.3482 8.88768 10.3327 8.94158 10.3327 8.99662V11.5015C10.3327 12.0302 9.90254 12.4604 9.37376 12.4604C8.84497 12.4604 8.41485 12.0302 8.41485 11.5015V9.03276L8.97669 6.7853H12.1445L13.7515 7.3162C13.8428 7.34639 13.9456 7.32901 14.0219 7.27057L14.523 6.88706L18.0346 11.4976L17.4871 11.8862Z" fill="#0F3041"/>
<path d="M19.9528 1.63655C19.8652 1.50011 19.6837 1.4605 19.5472 1.54808L17.9026 2.60362C17.7662 2.69119 17.7265 2.87275 17.8141 3.0092C17.8702 3.09658 17.9648 3.14424 18.0614 3.14424C18.1157 3.14424 18.1706 3.1292 18.2197 3.09771L19.8643 2.04217C20.0007 1.95452 20.0403 1.77296 19.9528 1.63655Z" fill="#0F3041"/>
</g>
<defs>
<clipPath id="clip0">
<rect width="20" height="20" fill="white"/>
</clipPath>
</defs>
</svg>
