<svg width="30" height="30" viewBox="0 0 30 30" fill="none" xmlns="http://www.w3.org/2000/svg">
<path d="M14.8908 16.1648C14.9218 16.1648 14.9529 16.1648 14.9902 16.1648C15.0026 16.1648 15.015 16.1648 15.0274 16.1648C15.0461 16.1648 15.0709 16.1648 15.0896 16.1648C16.9098 16.1338 18.3822 15.4939 19.4693 14.27C21.8611 11.5738 21.4635 6.95175 21.4201 6.51066C21.2647 3.19942 19.6992 1.61524 18.407 0.875958C17.4441 0.323048 16.3196 0.0248499 15.0647 0H15.0212C15.015 0 15.0026 0 14.9964 0H14.9591C14.2695 0 12.9152 0.111824 11.6168 0.851108C10.3122 1.59039 8.72178 3.17457 8.56647 6.51066C8.52298 6.95175 8.12538 11.5738 10.5172 14.27C11.5981 15.4939 13.0705 16.1338 14.8908 16.1648ZM10.2252 6.66598C10.2252 6.64734 10.2314 6.6287 10.2314 6.61628C10.4364 2.16194 13.5986 1.68358 14.9529 1.68358H14.9777C14.9902 1.68358 15.0088 1.68358 15.0274 1.68358C16.7048 1.72085 19.5563 2.40422 19.7489 6.61628C19.7489 6.63491 19.7489 6.65355 19.7551 6.66598C19.7613 6.70946 20.1962 10.9339 18.2206 13.158C17.4379 14.0402 16.3942 14.475 15.0212 14.4875C15.0088 14.4875 15.0026 14.4875 14.9902 14.4875C14.9777 14.4875 14.9715 14.4875 14.9591 14.4875C13.5924 14.475 12.5424 14.0402 11.7659 13.158C9.79653 10.9464 10.219 6.70325 10.2252 6.66598Z" fill="black"/>
<path d="M27.7585 23.831C27.7585 23.8248 27.7585 23.8186 27.7585 23.8124C27.7585 23.7627 27.7523 23.713 27.7523 23.6571C27.715 22.427 27.6342 19.5506 24.938 18.6312C24.9194 18.625 24.8945 18.6188 24.8759 18.6126C22.0741 17.8981 19.7444 16.2829 19.7195 16.2643C19.3406 15.9971 18.8187 16.0903 18.5516 16.4693C18.2845 16.8482 18.3777 17.3701 18.7566 17.6372C18.8622 17.7118 21.3348 19.4326 24.4286 20.2278C25.8761 20.7434 26.0376 22.2903 26.0811 23.7068C26.0811 23.7627 26.0811 23.8124 26.0873 23.8621C26.0935 24.4212 26.0563 25.2848 25.9569 25.7817C24.9504 26.3533 21.0055 28.3289 15.0043 28.3289C9.02789 28.3289 5.05813 26.3471 4.04549 25.7755C3.94609 25.2785 3.90261 24.415 3.91503 23.8559C3.91503 23.8062 3.92124 23.7565 3.92124 23.7006C3.96473 22.2841 4.12626 20.7372 5.57376 20.2216C8.66757 19.4264 11.1401 17.6993 11.2457 17.631C11.6247 17.3639 11.7179 16.842 11.4508 16.4631C11.1836 16.0841 10.6618 15.9909 10.2828 16.258C10.258 16.2767 7.94071 17.8919 5.12646 18.6064C5.10161 18.6126 5.08298 18.6188 5.06434 18.625C2.36813 19.5506 2.28737 22.427 2.25009 23.6509C2.25009 23.7068 2.25009 23.7565 2.24388 23.8062C2.24388 23.8124 2.24388 23.8186 2.24388 23.8248C2.23767 24.1479 2.23145 25.8066 2.56071 26.6391C2.62284 26.8006 2.73466 26.9373 2.88376 27.0305C3.07014 27.1547 7.5369 30 15.0105 30C22.4841 30 26.9509 27.1485 27.1372 27.0305C27.2801 26.9373 27.3982 26.8006 27.4603 26.6391C27.7709 25.8128 27.7647 24.1541 27.7585 23.831Z" fill="black"/>
</svg>
