<svg width="20" height="20" viewBox="0 0 20 20" fill="none" xmlns="http://www.w3.org/2000/svg">
<path d="M6.28785 12.0383C6.23035 12.0384 6.17433 12.0201 6.12793 11.9862C6.08152 11.9522 6.04716 11.9043 6.02983 11.8495C6.0125 11.7947 6.0131 11.7358 6.03156 11.6813C6.05001 11.6268 6.08536 11.5797 6.13245 11.5467C7.59686 10.512 9.36737 10.0014 11.1579 10.0972C15.6595 10.3302 16.6643 9.09319 16.8335 8.80751L14.947 1.31886C14.2419 1.90238 12.4876 3.00886 9.69002 2.584C8.77096 2.43408 7.83063 2.47948 6.93029 2.71724C6.00354 2.94989 5.1557 3.42573 4.47434 4.09562L4.26921 3.91805L4.07812 3.72697C4.82656 2.98112 5.76306 2.45193 6.78813 2.19562C7.76118 1.93812 8.77753 1.8883 9.7711 2.0494C13.1389 2.56292 14.8792 0.649945 14.8949 0.630486C14.9275 0.593622 14.9695 0.566359 15.0165 0.551638C15.0634 0.536916 15.1135 0.535295 15.1613 0.546949C15.2092 0.558603 15.2529 0.583089 15.2878 0.617767C15.3227 0.652445 15.3475 0.695999 15.3595 0.743729L17.3822 8.77076C17.3943 8.81903 17.3929 8.86972 17.3781 8.91724C17.3141 9.12346 16.5908 10.9224 11.1292 10.6378C9.45945 10.5485 7.80832 11.0245 6.44245 11.9891C6.39717 12.021 6.34321 12.0381 6.28785 12.0383Z" fill="#0F3041"/>
<path d="M14.4556 10.5023C14.3953 10.5022 14.3367 10.482 14.2892 10.4447C14.2416 10.4075 14.208 10.3555 14.1935 10.2969L12.2167 2.29119C12.1997 2.22155 12.211 2.148 12.2482 2.08672C12.2854 2.02544 12.3455 1.98145 12.4151 1.96443C12.4847 1.9474 12.5583 1.95874 12.6196 1.99594C12.6808 2.03315 12.7248 2.09317 12.7419 2.16281L14.7183 10.1688C14.7282 10.2086 14.7288 10.2502 14.7202 10.2903C14.7116 10.3304 14.694 10.3681 14.6687 10.4004C14.6434 10.4327 14.611 10.4588 14.5741 10.4767C14.5372 10.4946 14.4967 10.5039 14.4556 10.5039V10.5023Z" fill="#0F3041"/>
<path d="M11.6133 10.6591C11.5525 10.6591 11.4935 10.6386 11.4458 10.601C11.3981 10.5633 11.3645 10.5106 11.3504 10.4515L9.42064 2.37313C9.40506 2.30381 9.41741 2.23116 9.455 2.17088C9.49259 2.1106 9.5524 2.06754 9.62149 2.05103C9.69058 2.03451 9.7634 2.04586 9.82419 2.08262C9.88497 2.11938 9.92885 2.17859 9.94631 2.24745L11.8763 10.3258C11.8858 10.3656 11.8861 10.4069 11.8773 10.4468C11.8685 10.4867 11.8508 10.5241 11.8254 10.5561C11.8001 10.5882 11.7678 10.6141 11.731 10.6319C11.6942 10.6496 11.6539 10.6589 11.6131 10.6588L11.6133 10.6591Z" fill="#0F3041"/>
<path d="M8.88953 10.8387C8.82933 10.8387 8.77086 10.8185 8.72342 10.7815C8.67598 10.7444 8.64227 10.6926 8.62764 10.6342L6.59628 2.5236C6.58636 2.48876 6.58354 2.45229 6.58798 2.41635C6.59243 2.3804 6.60406 2.34572 6.62218 2.31436C6.6403 2.28299 6.66453 2.25559 6.69345 2.23378C6.72236 2.21197 6.75537 2.19619 6.7905 2.18738C6.82563 2.17858 6.86218 2.17692 6.89796 2.18252C6.93375 2.18812 6.96804 2.20085 6.99881 2.21996C7.02958 2.23907 7.05619 2.26416 7.07706 2.29376C7.09794 2.32336 7.11266 2.35685 7.12034 2.39225L9.15169 10.5023C9.16911 10.5718 9.15819 10.6454 9.12134 10.7069C9.0845 10.7684 9.02473 10.8127 8.95521 10.8301C8.93374 10.8356 8.91169 10.8385 8.88953 10.8387Z" fill="#0F3041"/>
<path d="M4.93441 6.76371C4.87933 6.76373 4.82556 6.74691 4.7803 6.71552C4.73504 6.68413 4.70045 6.63966 4.68117 6.58807C4.66189 6.53648 4.65882 6.48022 4.6724 6.42684C4.68597 6.37346 4.71553 6.3255 4.75711 6.28939C5.54718 5.63015 6.46848 5.14656 7.45981 4.87074C8.40223 4.60226 9.3914 4.53986 10.3601 4.68776C13.8785 5.22128 15.5782 3.4029 15.5949 3.38452C15.6187 3.35777 15.6475 3.33599 15.6797 3.32045C15.7119 3.30491 15.7469 3.29592 15.7826 3.294C15.8183 3.29208 15.8541 3.29726 15.8878 3.30926C15.9214 3.32125 15.9524 3.33981 15.9789 3.36387C16.0054 3.38792 16.0268 3.41699 16.0419 3.44938C16.0571 3.48178 16.0657 3.51686 16.0672 3.5526C16.0687 3.58833 16.063 3.62401 16.0506 3.65755C16.0382 3.6911 16.0193 3.72186 15.9949 3.74803C15.9187 3.83209 14.0817 5.79885 10.279 5.22236C9.38613 5.08611 8.47438 5.14372 7.60576 5.39128C6.69148 5.64481 5.84165 6.09009 5.11279 6.69749C5.0634 6.74059 4.99995 6.76414 4.93441 6.76371Z" fill="#0F3041"/>
<path d="M5.63012 9.47164C5.57451 9.47174 5.52022 9.45468 5.47466 9.42279C5.4291 9.3909 5.39449 9.34573 5.37554 9.29345C5.3566 9.24116 5.35424 9.18431 5.3688 9.13064C5.38335 9.07696 5.41411 9.02909 5.45688 8.99354C6.24872 8.3546 7.16617 7.88947 8.14958 7.6284C9.0669 7.3808 10.0257 7.32704 10.965 7.47056C14.4677 7.99867 16.1861 6.18489 16.2031 6.16651C16.2514 6.11357 16.3188 6.08201 16.3905 6.07877C16.4621 6.07552 16.532 6.10086 16.585 6.14921C16.6379 6.19756 16.6695 6.26496 16.6727 6.33658C16.676 6.40819 16.6506 6.47817 16.6023 6.5311C16.5258 6.61516 14.6861 8.57894 10.8844 8.00516C10.0188 7.87317 9.13524 7.92278 8.28985 8.15083C7.383 8.39404 6.53637 8.8225 5.80336 9.40921C5.75477 9.44978 5.69342 9.47189 5.63012 9.47164Z" fill="#0F3041"/>
<path d="M7.32421 19.4594C7.1149 19.4596 6.91144 19.3903 6.7458 19.2623C6.58016 19.1343 6.46172 18.955 6.40908 18.7524L2.63908 4.27264C2.57551 4.03394 2.60847 3.7798 2.73081 3.5652C2.85316 3.3506 3.05507 3.19278 3.29286 3.12589L3.34016 3.11237C3.46164 3.07754 3.58887 3.0674 3.71433 3.08256C3.8398 3.09771 3.96095 3.13785 4.07064 3.20061C4.18034 3.26337 4.27634 3.34747 4.35299 3.44794C4.42964 3.54842 4.48538 3.66324 4.51692 3.78562L8.24097 18.278C8.29939 18.5034 8.27239 18.7425 8.16516 18.9491C8.05794 19.1558 7.87806 19.3155 7.66016 19.3975L7.65313 19.4002C7.54787 19.4393 7.4365 19.4593 7.32421 19.4594ZM3.60178 3.61562C3.56374 3.61563 3.52589 3.621 3.48935 3.63156L3.44205 3.64508C3.34014 3.67369 3.2536 3.74131 3.20119 3.83328C3.14878 3.92525 3.13472 4.03416 3.16205 4.13643L6.93286 18.6159C6.94712 18.67 6.97244 18.7206 7.00723 18.7645C7.04201 18.8084 7.0855 18.8446 7.13496 18.8708C7.18443 18.897 7.23878 18.9127 7.29461 18.9169C7.35044 18.9211 7.40653 18.9136 7.45935 18.8951L7.46475 18.8929C7.55881 18.8584 7.63666 18.7901 7.68316 18.7013C7.72967 18.6125 7.74151 18.5096 7.71638 18.4126L3.99313 3.91886C3.97076 3.83198 3.92021 3.75498 3.84939 3.69991C3.77858 3.64484 3.69149 3.61481 3.60178 3.61454V3.61562Z" fill="#0F3041"/>
</svg>
