<svg width="17" height="17" viewBox="0 0 17 17" fill="none" xmlns="http://www.w3.org/2000/svg">
<path d="M0 17H17V5.17285H0V17ZM12.6039 6.89733H14.3626V8.72302H12.6039V6.89733ZM12.6039 10.0012H14.3626V11.8269H12.6039V10.0012ZM12.6039 13.1051H14.3626V14.9308H12.6039V13.1051ZM9.28172 6.89733H11.0404V8.72302H9.28172V6.89733ZM9.28172 10.0012H11.0404V11.8269H9.28172V10.0012ZM9.28172 13.1051H11.0404V14.9308H9.28172V13.1051ZM5.95953 6.89733H7.71824V8.72302H5.95953V6.89733ZM5.95953 10.0012H7.71824V11.8269H5.95953V10.0012ZM5.95953 13.1051H7.71824V14.9308H5.95953V13.1051ZM2.6374 6.89733H4.39608V8.72302H2.6374V6.89733ZM2.6374 10.0012H4.39608V11.8269H2.6374V10.0012ZM4.39608 13.1051V14.9308H2.6374V13.1051H4.39608Z" fill="#FF3355"/>
<path d="M17 1.03418H14.01V3.10339H13.0134V1.03418H3.98655V3.10339H2.98996V1.03418H0V4.13802H17V1.03418Z" fill="#FF3355"/>
<path d="M3.98486 0H2.98828V1.03451H3.98486V0Z" fill="#FF3355"/>
<path d="M14.0084 0H13.0117V1.03451H14.0084V0Z" fill="#FF3355"/>
</svg>
