<svg width="23" height="24" viewBox="0 0 23 24" fill="none" xmlns="http://www.w3.org/2000/svg">
<g clip-path="url(#clip0)">
<path d="M21.9716 18.9925C21.9716 19.504 21.771 19.9945 21.414 20.3562C21.0569 20.7179 20.5727 20.9211 20.0678 20.9211H2.93314C2.42821 20.9211 1.94396 20.7179 1.58692 20.3562C1.22988 19.9945 1.0293 19.504 1.0293 18.9925V8.38538C1.0293 7.87389 1.22988 7.38335 1.58692 7.02167C1.94396 6.65999 2.42821 6.45681 2.93314 6.45681H6.74084L8.64468 3.56395H14.3562L16.2601 6.45681H20.0678C20.5727 6.45681 21.0569 6.65999 21.414 7.02167C21.771 7.38335 21.9716 7.87389 21.9716 8.38538V18.9925Z" stroke="#FF3355" stroke-width="2" stroke-linecap="round" stroke-linejoin="round"/>
<path d="M11.5011 17.0636C13.604 17.0636 15.3087 15.3367 15.3087 13.2065C15.3087 11.0763 13.604 9.34935 11.5011 9.34935C9.39812 9.34935 7.69336 11.0763 7.69336 13.2065C7.69336 15.3367 9.39812 17.0636 11.5011 17.0636Z" stroke="#FF3355" stroke-width="2" stroke-linecap="round" stroke-linejoin="round"/>
</g>
<defs>
<clipPath id="clip0">
<rect width="30" height="30" fill="white" transform="translate(0.078125 0.670654)"/>
</clipPath>
</defs>
</svg>
