<svg width="70" height="70" viewBox="0 0 70 70" fill="none" xmlns="http://www.w3.org/2000/svg">
<circle cx="35" cy="35" r="35" fill="#E7E7E7"/>
<path d="M70 35C70 44.032 66.5084 52.7143 60.2553 59.2316C54.0022 65.7489 45.4717 69.5965 36.4475 69.9701C27.4232 70.3436 18.604 67.2141 11.8336 61.2358C5.06332 55.2576 0.866153 46.8936 0.119727 37.8925C-0.6267 28.8914 2.1354 19.9503 7.82851 12.9385C13.5216 5.92672 21.7049 1.38724 30.6674 0.269193C39.6299 -0.84885 48.6777 1.54111 55.9189 6.93937C63.1601 12.3376 68.0342 20.3262 69.5219 29.2348L35 35H70Z" fill="#D70025"/>
<path d="M70 35C70 43.0974 67.1923 50.9444 62.0554 57.2038C56.9184 63.4632 49.77 67.7478 41.8282 69.3275C33.8863 70.9072 25.6424 69.6843 18.5011 65.8672C11.3598 62.0501 5.76297 55.875 2.66422 48.3939C-0.434537 40.9129 -0.843473 32.5888 1.50709 24.84C3.85765 17.0913 8.82227 10.3973 15.555 5.89857C22.2878 1.39987 30.3722 -0.625152 38.4306 0.168534C46.489 0.96222 54.023 4.52551 59.7487 10.2513L35 35H70Z" fill="#466EFE"/>
<path d="M68.0647 23.5228C69.5719 27.8649 70.2091 32.4614 69.9399 37.0497C69.6708 41.6381 68.5005 46.1286 66.4959 50.2646C64.4913 54.4007 61.6917 58.1015 58.2569 61.1556C54.8221 64.2098 50.8193 66.5575 46.4772 68.0647L35 35L68.0647 23.5228Z" fill="#31CC53"/>
<circle cx="35.3516" cy="35.3516" r="29.75" fill="white"/>
<path d="M34.5202 28.4291C34.5202 29.4851 34.3222 30.4271 33.9262 31.2551C33.5422 32.0711 33.0142 32.7131 32.3422 33.1811C31.6702 33.6491 30.9022 33.8831 30.0382 33.8831C29.1742 33.8831 28.4062 33.6491 27.7342 33.1811C27.0622 32.7131 26.5342 32.0711 26.1502 31.2551C25.7662 30.4271 25.5742 29.4851 25.5742 28.4291C25.5742 27.3731 25.7662 26.4371 26.1502 25.6211C26.5342 24.7931 27.0622 24.1451 27.7342 23.6771C28.4062 23.1971 29.1742 22.9571 30.0382 22.9571C30.9022 22.9571 31.6702 23.1971 32.3422 23.6771C33.0142 24.1451 33.5422 24.7931 33.9262 25.6211C34.3222 26.4371 34.5202 27.3731 34.5202 28.4291ZM33.6022 28.4291C33.6022 27.5171 33.4522 26.7131 33.1522 26.0171C32.8522 25.3211 32.4322 24.7811 31.8922 24.3971C31.3642 24.0011 30.7462 23.8031 30.0382 23.8031C29.3422 23.8031 28.7242 24.0011 28.1842 24.3971C27.6442 24.7811 27.2242 25.3211 26.9242 26.0171C26.6242 26.7131 26.4742 27.5171 26.4742 28.4291C26.4742 29.3411 26.6242 30.1451 26.9242 30.8411C27.2242 31.5251 27.6442 32.0651 28.1842 32.4611C28.7242 32.8451 29.3422 33.0371 30.0382 33.0371C30.7462 33.0371 31.3642 32.8451 31.8922 32.4611C32.4322 32.0651 32.8522 31.5251 33.1522 30.8411C33.4522 30.1451 33.6022 29.3411 33.6022 28.4291ZM45.2181 30.2111C45.2181 30.9551 45.0141 31.5971 44.6061 32.1371C44.1981 32.6771 43.6581 33.0971 42.9861 33.3971C42.3141 33.6851 41.5821 33.8291 40.7901 33.8291C39.9381 33.8291 39.1881 33.6611 38.5401 33.3251C37.8921 32.9891 37.3821 32.5451 37.0101 31.9931C36.6501 31.4411 36.4701 30.8291 36.4701 30.1571C36.4701 29.5931 36.6021 29.0891 36.8661 28.6451C37.1421 28.2011 37.4841 27.8291 37.8921 27.5291C38.3121 27.2171 38.7441 26.9891 39.1881 26.8451C38.5761 26.6171 38.0421 26.2691 37.5861 25.8011C37.1421 25.3331 36.9201 24.7691 36.9201 24.1091C36.9201 23.4251 37.1181 22.8491 37.5141 22.3811C37.9101 21.9011 38.4081 21.5411 39.0081 21.3011C39.6081 21.0491 40.2261 20.9231 40.8621 20.9231C41.4861 20.9231 42.0981 21.0491 42.6981 21.3011C43.2981 21.5411 43.7961 21.8951 44.1921 22.3631C44.5881 22.8311 44.7861 23.4071 44.7861 24.0911C44.7861 24.7511 44.5581 25.3211 44.1021 25.8011C43.6461 26.2691 43.1121 26.6171 42.5001 26.8451C43.0041 27.0131 43.4601 27.2591 43.8681 27.5831C44.2761 27.8951 44.6001 28.2791 44.8401 28.7351C45.0921 29.1791 45.2181 29.6711 45.2181 30.2111ZM37.8381 24.1451C37.8381 24.6491 37.9941 25.0811 38.3061 25.4411C38.6181 25.7891 39.0021 26.0531 39.4581 26.2331C39.9261 26.4131 40.3881 26.5031 40.8441 26.5031C41.3001 26.5031 41.7621 26.4131 42.2301 26.2331C42.6981 26.0411 43.0881 25.7651 43.4001 25.4051C43.7121 25.0451 43.8681 24.6131 43.8681 24.1091C43.8681 23.6171 43.7181 23.1971 43.4181 22.8491C43.1301 22.4891 42.7521 22.2191 42.2841 22.0391C41.8281 21.8471 41.3421 21.7511 40.8261 21.7511C40.3101 21.7511 39.8241 21.8471 39.3681 22.0391C38.9121 22.2311 38.5401 22.5071 38.2521 22.8671C37.9761 23.2151 37.8381 23.6411 37.8381 24.1451ZM44.3181 30.1391C44.3181 29.5271 44.1381 29.0051 43.7781 28.5731C43.4181 28.1411 42.9681 27.8111 42.4281 27.5831C41.9001 27.3551 41.3661 27.2411 40.8261 27.2411C40.2621 27.2411 39.7161 27.3671 39.1881 27.6191C38.6721 27.8591 38.2401 28.1951 37.8921 28.6271C37.5561 29.0591 37.3881 29.5691 37.3881 30.1571C37.3881 30.7691 37.5621 31.2911 37.9101 31.7231C38.2701 32.1431 38.7201 32.4671 39.2601 32.6951C39.8001 32.9231 40.3401 33.0371 40.8801 33.0371C41.4321 33.0371 41.9721 32.9171 42.5001 32.6771C43.0281 32.4371 43.4601 32.1011 43.7961 31.6691C44.1441 31.2371 44.3181 30.7271 44.3181 30.1391ZM21.8844 43.3831C21.8844 42.8631 21.9724 42.3551 22.1484 41.8591C22.3324 41.3551 22.5964 40.8991 22.9404 40.4911C23.2924 40.0751 23.7204 39.7471 24.2244 39.5071C24.7284 39.2591 25.3004 39.1351 25.9404 39.1351C26.7004 39.1351 27.3524 39.3111 27.8964 39.6631C28.4404 40.0071 28.8444 40.4511 29.1084 40.9951L28.2564 41.5471C28.0884 41.1871 27.8724 40.9031 27.6084 40.6951C27.3524 40.4791 27.0724 40.3271 26.7684 40.2391C26.4724 40.1511 26.1804 40.1071 25.8924 40.1071C25.4204 40.1071 25.0004 40.2031 24.6324 40.3951C24.2724 40.5871 23.9684 40.8431 23.7204 41.1631C23.4724 41.4831 23.2844 41.8431 23.1564 42.2431C23.0364 42.6351 22.9764 43.0311 22.9764 43.4311C22.9764 43.8711 23.0484 44.2951 23.1924 44.7031C23.3444 45.1111 23.5524 45.4711 23.8164 45.7831C24.0804 46.0951 24.3924 46.3431 24.7524 46.5271C25.1124 46.7111 25.5044 46.8031 25.9284 46.8031C26.2244 46.8031 26.5284 46.7511 26.8404 46.6471C27.1524 46.5431 27.4444 46.3831 27.7164 46.1671C27.9884 45.9431 28.2044 45.6551 28.3644 45.3031L29.2644 45.7951C29.0884 46.2191 28.8164 46.5791 28.4484 46.8751C28.0804 47.1711 27.6684 47.3951 27.2124 47.5471C26.7644 47.6991 26.3204 47.7751 25.8804 47.7751C25.2964 47.7751 24.7604 47.6511 24.2724 47.4031C23.7844 47.1471 23.3604 46.8111 23.0004 46.3951C22.6484 45.9711 22.3724 45.4991 22.1724 44.9791C21.9804 44.4511 21.8844 43.9191 21.8844 43.3831ZM29.9561 45.8911C29.9561 45.4911 30.0681 45.1471 30.2921 44.8591C30.5241 44.5631 30.8401 44.3351 31.2401 44.1751C31.6401 44.0151 32.1041 43.9351 32.6321 43.9351C32.9121 43.9351 33.2081 43.9591 33.5201 44.0071C33.8321 44.0471 34.1081 44.1111 34.3481 44.1991V43.7431C34.3481 43.2631 34.2041 42.8871 33.9161 42.6151C33.6281 42.3351 33.2201 42.1951 32.6921 42.1951C32.3481 42.1951 32.0161 42.2591 31.6961 42.3871C31.3841 42.5071 31.0521 42.6831 30.7001 42.9151L30.3161 42.1711C30.7241 41.8911 31.1321 41.6831 31.5401 41.5471C31.9481 41.4031 32.3721 41.3311 32.8121 41.3311C33.6121 41.3311 34.2441 41.5551 34.7081 42.0031C35.1721 42.4431 35.4041 43.0591 35.4041 43.8511V46.5031C35.4041 46.7511 35.5161 46.8791 35.7401 46.8871V47.7031C35.6361 47.7191 35.5441 47.7311 35.4641 47.7391C35.3921 47.7471 35.3321 47.7511 35.2841 47.7511C35.0361 47.7511 34.8481 47.6831 34.7201 47.5471C34.6001 47.4111 34.5321 47.2671 34.5161 47.1151L34.4921 46.7191C34.2201 47.0711 33.8641 47.3431 33.4241 47.5351C32.9841 47.7271 32.5481 47.8231 32.1161 47.8231C31.7001 47.8231 31.3281 47.7391 31.0001 47.5711C30.6721 47.3951 30.4161 47.1631 30.2321 46.8751C30.0481 46.5791 29.9561 46.2511 29.9561 45.8911ZM34.0361 46.3351C34.1321 46.2231 34.2081 46.1111 34.2641 45.9991C34.3201 45.8791 34.3481 45.7791 34.3481 45.6991V44.9191C33.8361 44.7191 33.3081 44.6191 32.7641 44.6191C32.2281 44.6191 31.7921 44.7271 31.4561 44.9431C31.1281 45.1511 30.9641 45.4391 30.9641 45.8071C30.9641 46.0071 31.0161 46.2031 31.1201 46.3951C31.2321 46.5791 31.3921 46.7311 31.6001 46.8511C31.8161 46.9711 32.0801 47.0311 32.3921 47.0311C32.7201 47.0311 33.0321 46.9671 33.3281 46.8391C33.6241 46.7031 33.8601 46.5351 34.0361 46.3351ZM39.2406 47.8231C38.7206 47.8231 38.2326 47.7391 37.7766 47.5711C37.3206 47.3951 36.9286 47.1351 36.6006 46.7911L37.0086 46.0471C37.3686 46.3831 37.7286 46.6231 38.0886 46.7671C38.4486 46.9111 38.8166 46.9831 39.1926 46.9831C39.6246 46.9831 39.9766 46.9031 40.2486 46.7431C40.5206 46.5751 40.6566 46.3311 40.6566 46.0111C40.6566 45.7791 40.5846 45.6071 40.4406 45.4951C40.3046 45.3831 40.1086 45.2911 39.8526 45.2191C39.5966 45.1391 39.2926 45.0511 38.9406 44.9551C38.2926 44.7711 37.7966 44.5551 37.4526 44.3071C37.1166 44.0511 36.9486 43.6791 36.9486 43.1911C36.9486 42.5991 37.1726 42.1431 37.6206 41.8231C38.0766 41.4951 38.6566 41.3311 39.3606 41.3311C40.3046 41.3311 41.0486 41.6151 41.5926 42.1831L41.1126 42.9151C40.6246 42.4111 40.0206 42.1591 39.3006 42.1591C39.0846 42.1591 38.8726 42.1871 38.6646 42.2431C38.4566 42.2911 38.2846 42.3831 38.1486 42.5191C38.0126 42.6471 37.9446 42.8311 37.9446 43.0711C37.9446 43.3671 38.0646 43.5791 38.3046 43.7071C38.5446 43.8351 38.8966 43.9671 39.3606 44.1031C39.8326 44.2391 40.2406 44.3751 40.5846 44.5111C40.9366 44.6471 41.2086 44.8231 41.4006 45.0391C41.5926 45.2551 41.6886 45.5551 41.6886 45.9391C41.6886 46.5311 41.4646 46.9951 41.0166 47.3311C40.5686 47.6591 39.9766 47.8231 39.2406 47.8231ZM45.688 47.8231C45.064 47.8231 44.512 47.6751 44.032 47.3791C43.56 47.0751 43.192 46.6791 42.928 46.1911C42.664 45.6951 42.532 45.1591 42.532 44.5831C42.532 43.9991 42.664 43.4631 42.928 42.9751C43.2 42.4791 43.572 42.0831 44.044 41.7871C44.524 41.4831 45.072 41.3311 45.688 41.3311C46.312 41.3311 46.86 41.4831 47.332 41.7871C47.812 42.0831 48.184 42.4791 48.448 42.9751C48.72 43.4631 48.856 43.9991 48.856 44.5831C48.856 45.1591 48.72 45.6951 48.448 46.1911C48.184 46.6791 47.816 47.0751 47.344 47.3791C46.872 47.6751 46.32 47.8231 45.688 47.8231ZM43.612 44.5951C43.612 45.0271 43.704 45.4191 43.888 45.7711C44.08 46.1231 44.332 46.4031 44.644 46.6111C44.956 46.8111 45.304 46.9111 45.688 46.9111C46.072 46.9111 46.42 46.8071 46.732 46.5991C47.052 46.3911 47.304 46.1111 47.488 45.7591C47.68 45.3991 47.776 45.0031 47.776 44.5711C47.776 44.1391 47.68 43.7471 47.488 43.3951C47.304 43.0431 47.052 42.7631 46.732 42.5551C46.42 42.3471 46.072 42.2431 45.688 42.2431C45.304 42.2431 44.956 42.3511 44.644 42.5671C44.332 42.7751 44.08 43.0551 43.888 43.4071C43.704 43.7591 43.612 44.1551 43.612 44.5951Z" fill="#0F3041"/>
</svg>
