<svg width="18" height="18" viewBox="0 0 18 18" fill="none" xmlns="http://www.w3.org/2000/svg">
<path d="M16.6792 8.2872L9.64965 15.1797C8.78848 16.0241 7.62047 16.4984 6.40259 16.4984C5.1847 16.4984 4.0167 16.0241 3.15552 15.1797C2.29435 14.3353 1.81055 13.1901 1.81055 11.9959C1.81055 10.8018 2.29435 9.65658 3.15552 8.8122L10.1851 1.9197C10.7592 1.35677 11.5379 1.04053 12.3498 1.04053C13.1617 1.04053 13.9404 1.35677 14.5145 1.9197C15.0886 2.48262 15.4112 3.2461 15.4112 4.0422C15.4112 4.83829 15.0886 5.60177 14.5145 6.1647L7.47729 13.0572C7.19023 13.3387 6.8009 13.4968 6.39494 13.4968C5.98898 13.4968 5.59964 13.3387 5.31258 13.0572C5.02553 12.7757 4.86426 12.394 4.86426 11.9959C4.86426 11.5979 5.02553 11.2162 5.31258 10.9347L11.8067 4.5747" stroke="#466EFE" stroke-width="2" stroke-linecap="round" stroke-linejoin="round"/>
</svg>
