<svg width="18" height="18" viewBox="0 0 18 18" fill="none" xmlns="http://www.w3.org/2000/svg">
<path d="M16.3999 8.28768L9.37035 15.1802C8.50918 16.0246 7.34118 16.4989 6.12329 16.4989C4.90541 16.4989 3.7374 16.0246 2.87623 15.1802C2.01505 14.3358 1.53125 13.1906 1.53125 11.9964C1.53125 10.8023 2.01505 9.65707 2.87623 8.81268L9.90579 1.92018C10.4799 1.35726 11.2586 1.04102 12.0705 1.04102C12.8824 1.04102 13.6611 1.35726 14.2352 1.92018C14.8093 2.48311 15.1319 3.24659 15.1319 4.04268C15.1319 4.83878 14.8093 5.60226 14.2352 6.16518L7.198 13.0577C6.91094 13.3391 6.5216 13.4973 6.11564 13.4973C5.70968 13.4973 5.32035 13.3391 5.03329 13.0577C4.74623 12.7762 4.58496 12.3945 4.58496 11.9964C4.58496 11.5984 4.74623 11.2166 5.03329 10.9352L11.5274 4.57518" stroke="#466EFE" stroke-width="2" stroke-linecap="round" stroke-linejoin="round"/>
</svg>
