<svg width="19" height="18" viewBox="0 0 19 18" fill="none" xmlns="http://www.w3.org/2000/svg">
<g clip-path="url(#clip0)">
<path d="M16.3307 8.28768L9.43821 15.1802C8.59382 16.0246 7.44859 16.4989 6.25446 16.4989C5.06032 16.4989 3.91509 16.0246 3.07071 15.1802C2.22632 14.3358 1.75195 13.1906 1.75195 11.9964C1.75195 10.8023 2.22632 9.65707 3.07071 8.81268L9.96321 1.92018C10.5261 1.35726 11.2896 1.04102 12.0857 1.04102C12.8818 1.04102 13.6453 1.35726 14.2082 1.92018C14.7711 2.48311 15.0874 3.24659 15.0874 4.04268C15.0874 4.83878 14.7711 5.60226 14.2082 6.16518L7.30821 13.0577C7.02674 13.3391 6.645 13.4973 6.24696 13.4973C5.84891 13.4973 5.46717 13.3391 5.18571 13.0577C4.90424 12.7762 4.74612 12.3945 4.74612 11.9964C4.74612 11.5984 4.90424 11.2166 5.18571 10.9352L11.5532 4.57518" stroke="#466EFE" stroke-width="2" stroke-linecap="round" stroke-linejoin="round"/>
</g>
<defs>
<clipPath id="clip0">
<rect width="18" height="18" fill="white" transform="translate(0.25)"/>
</clipPath>
</defs>
</svg>
