<svg width="20" height="22" viewBox="0 0 20 22" fill="none" xmlns="http://www.w3.org/2000/svg">
<g clip-path="url(#clip0)">
<path d="M17.6173 21.2382H2.68788C1.46365 21.2382 0.46875 20.147 0.46875 18.8048V5.97344C0.46875 4.631 1.46365 3.54004 2.68788 3.54004H5.5124C5.8465 3.54004 6.11765 3.83737 6.11765 4.20372C6.11765 4.57008 5.8465 4.86741 5.5124 4.86741H2.68788C2.13184 4.86741 1.67924 5.36371 1.67924 5.97344V18.8048C1.67924 19.4143 2.13184 19.9108 2.68788 19.9108H17.6173C18.1733 19.9108 18.6261 19.4143 18.6261 18.8048V11.2829C18.6261 10.9166 18.8972 10.6192 19.2313 10.6192C19.5654 10.6192 19.8366 10.9166 19.8366 11.2829V18.8048C19.8366 20.147 18.8415 21.2382 17.6173 21.2382Z" fill="#FF3355"/>
<path d="M5.9149 14.1474C5.87058 14.1474 5.8261 14.142 5.78177 14.1295C5.50826 14.0597 5.31055 13.803 5.31055 13.4952V12.1678C5.31055 7.41055 8.84035 3.53992 13.1787 3.53992H13.3804V0.663847C13.3804 0.393091 13.5306 0.149719 13.7597 0.0479627C13.988 -0.0528214 14.2503 0.00810268 14.4214 0.203676L19.6669 6.17683C19.8929 6.43349 19.8929 6.84052 19.6669 7.09718L14.4214 13.0703C14.2503 13.2659 13.9864 13.3262 13.7597 13.226C13.5306 13.1243 13.3804 12.8809 13.3804 12.6102V9.73425H12.4217C9.88298 9.73425 7.60149 11.281 6.46695 13.7703C6.36278 14.0004 6.14409 14.1474 5.9149 14.1474ZM13.1787 4.86729C9.7893 4.86729 6.98265 7.6591 6.57187 11.2562C8.03887 9.46171 10.1427 8.40688 12.4217 8.40688H13.9857C14.3198 8.40688 14.5909 8.70421 14.5909 9.07057V10.9642L18.391 6.637L14.5909 2.30977V4.2036C14.5909 4.56996 14.3198 4.86729 13.9857 4.86729H13.1787Z" fill="#FF3355"/>
</g>
<defs>
<clipPath id="clip0">
<rect width="19.368" height="21.2381" fill="white" transform="translate(0.46875)"/>
</clipPath>
</defs>
</svg>
