<svg width="20" height="20" viewBox="0 0 20 20" fill="none" xmlns="http://www.w3.org/2000/svg">
<path d="M11.875 4.0625H10.9375V3.125C10.9375 3.04212 10.9046 2.96263 10.846 2.90403C10.7874 2.84542 10.7079 2.8125 10.625 2.8125H9.375C9.29212 2.8125 9.21263 2.84542 9.15403 2.90403C9.09542 2.96263 9.0625 3.04212 9.0625 3.125V4.0625H8.125C8.04212 4.0625 7.96263 4.09542 7.90403 4.15403C7.84542 4.21263 7.8125 4.29212 7.8125 4.375V5.625C7.8125 5.70788 7.84542 5.78737 7.90403 5.84597C7.96263 5.90458 8.04212 5.9375 8.125 5.9375H9.0625V6.875C9.0625 6.95788 9.09542 7.03737 9.15403 7.09597C9.21263 7.15458 9.29212 7.1875 9.375 7.1875H10.625C10.7079 7.1875 10.7874 7.15458 10.846 7.09597C10.9046 7.03737 10.9375 6.95788 10.9375 6.875V5.9375H11.875C11.9579 5.9375 12.0374 5.90458 12.096 5.84597C12.1546 5.78737 12.1875 5.70788 12.1875 5.625V4.375C12.1875 4.29212 12.1546 4.21263 12.096 4.15403C12.0374 4.09542 11.9579 4.0625 11.875 4.0625ZM11.5625 5.3125H10.625C10.5421 5.3125 10.4626 5.34542 10.404 5.40403C10.3454 5.46263 10.3125 5.54212 10.3125 5.625V6.5625H9.6875V5.625C9.6875 5.54212 9.65458 5.46263 9.59597 5.40403C9.53737 5.34542 9.45788 5.3125 9.375 5.3125H8.4375V4.6875H9.375C9.45788 4.6875 9.53737 4.65458 9.59597 4.59597C9.65458 4.53737 9.6875 4.45788 9.6875 4.375V3.4375H10.3125V4.375C10.3125 4.45788 10.3454 4.53737 10.404 4.59597C10.4626 4.65458 10.5421 4.6875 10.625 4.6875H11.5625V5.3125Z" fill="#0F3041"/>
<path d="M18.6656 5.73758C18.672 5.6826 18.6751 5.6273 18.675 5.57196C18.6735 5.28551 18.5741 5.00818 18.3934 4.78595C18.2126 4.56372 17.9614 4.40993 17.6813 4.35008C17.3644 4.28977 17.0364 4.35206 16.7638 4.52437C16.4911 4.69668 16.294 4.96613 16.2125 5.2782L14.8375 9.23446C14.8171 9.24254 14.7973 9.25194 14.7781 9.26258L12.0156 10.8813C11.5929 11.1296 11.2423 11.4839 10.9984 11.9092C10.7545 12.3345 10.6258 12.8161 10.625 13.3063V16.2501C10.5421 16.2501 10.4626 16.283 10.404 16.3416C10.3454 16.4002 10.3125 16.4797 10.3125 16.5626V19.0626C10.3125 19.1455 10.3454 19.2249 10.404 19.2836C10.4626 19.3422 10.5421 19.3751 10.625 19.3751H15C15.0829 19.3751 15.1624 19.3422 15.221 19.2836C15.2796 19.2249 15.3125 19.1455 15.3125 19.0626V16.5626C15.3125 16.4797 15.2796 16.4002 15.221 16.3416C15.1624 16.283 15.0829 16.2501 15 16.2501V15.5626C15.0006 15.4306 15.0287 15.3002 15.0825 15.1796C15.1363 15.0591 15.2146 14.9511 15.3125 14.8626L17.425 12.9845C17.6561 12.7823 17.8215 12.5157 17.9 12.2188L19.2562 7.14696C19.2852 7.04105 19.2999 6.93175 19.3 6.82195C19.2988 6.60142 19.2395 6.3851 19.1281 6.19475C19.0168 6.00439 18.8573 5.84672 18.6656 5.73758ZM16.8094 5.46258C16.8477 5.30097 16.9456 5.15976 17.0834 5.06709C17.2213 4.97442 17.389 4.9371 17.5531 4.96258C17.6932 4.99192 17.819 5.06843 17.9094 5.17935C17.9998 5.29026 18.0495 5.42885 18.05 5.57196V5.57821C17.7709 5.58339 17.5011 5.6796 17.2816 5.85221C17.0622 6.02483 16.9051 6.26439 16.8344 6.53446L15.9625 9.22508C15.8305 9.16247 15.689 9.12233 15.5438 9.10633L16.8094 5.46258ZM14.6875 18.7501H10.9375V16.8751H14.6875V18.7501ZM18.6531 6.98446L17.2937 12.0595C17.2467 12.2358 17.1489 12.3945 17.0125 12.5157L14.8969 14.3938C14.7332 14.5415 14.6022 14.7217 14.5123 14.923C14.4224 15.1243 14.3756 15.3421 14.375 15.5626V16.2501H11.25V13.3063C11.2515 12.9251 11.352 12.5507 11.5415 12.2199C11.731 11.889 12.0031 11.613 12.3312 11.4188L15.0906 9.80321C15.1618 9.76175 15.2404 9.73477 15.322 9.7238C15.4036 9.71283 15.4866 9.7181 15.5662 9.7393C15.6457 9.7605 15.7203 9.79721 15.7857 9.84732C15.851 9.89744 15.9058 9.95997 15.9469 10.0313C16.028 10.1757 16.0504 10.3459 16.0094 10.5063C15.9877 10.5856 15.9506 10.6598 15.9001 10.7246C15.8497 10.7895 15.787 10.8438 15.7156 10.8845L13.925 11.9188C13.857 11.9621 13.8083 12.0299 13.7891 12.1082C13.7699 12.1865 13.7818 12.2692 13.8221 12.3389C13.8624 12.4087 13.9282 12.4602 14.0056 12.4827C14.083 12.5051 14.1661 12.4968 14.2375 12.4595L16.0281 11.4251C16.1713 11.3439 16.2967 11.2349 16.397 11.1044C16.4974 10.974 16.5707 10.8249 16.6125 10.6657C16.6976 10.346 16.6526 10.0055 16.4875 9.71883L16.4688 9.69071L17.4344 6.71258C17.4727 6.55097 17.5706 6.40976 17.7084 6.31709C17.8463 6.22442 18.014 6.1871 18.1781 6.21258C18.3182 6.24192 18.444 6.31843 18.5344 6.42935C18.6248 6.54026 18.6745 6.67885 18.675 6.82195C18.6761 6.87692 18.6687 6.93172 18.6531 6.98446Z" fill="#0F3041"/>
<path d="M9.37422 16.2501V13.3064C9.37341 12.8161 9.24471 12.3345 9.00082 11.9093C8.75694 11.484 8.40631 11.1297 7.98359 10.8814L5.22109 9.25948C5.20234 9.2501 5.18047 9.24385 5.16172 9.23448L3.79609 5.3001C3.71672 4.98348 3.51969 4.70899 3.24509 4.5325C2.97049 4.35602 2.63896 4.29079 2.31797 4.3501C2.03784 4.40996 1.78658 4.56374 1.60584 4.78598C1.4251 5.00821 1.32573 5.28553 1.32422 5.57198C1.32414 5.62732 1.32727 5.68262 1.33359 5.7376C1.14196 5.84674 0.982438 6.00442 0.871079 6.19477C0.759719 6.38513 0.700445 6.60145 0.699219 6.82198C0.699826 6.93154 0.713463 7.04064 0.739844 7.14698L2.09922 12.2157C2.1769 12.5138 2.3424 12.7816 2.57422 12.9845L4.68359 14.8626C4.78245 14.9505 4.86165 15.0583 4.91603 15.179C4.97042 15.2996 4.99876 15.4303 4.99922 15.5626V16.2501C4.91634 16.2501 4.83685 16.283 4.77825 16.3416C4.71964 16.4002 4.68672 16.4797 4.68672 16.5626V19.0626C4.68672 19.1455 4.71964 19.225 4.77825 19.2836C4.83685 19.3422 4.91634 19.3751 4.99922 19.3751H9.37422C9.4571 19.3751 9.53658 19.3422 9.59519 19.2836C9.6538 19.225 9.68672 19.1455 9.68672 19.0626V16.5626C9.68672 16.4797 9.6538 16.4002 9.59519 16.3416C9.53658 16.283 9.4571 16.2501 9.37422 16.2501ZM1.94922 5.57198C1.9496 5.42931 1.99879 5.29106 2.08861 5.1802C2.17843 5.06935 2.30348 4.99257 2.44297 4.9626C2.61161 4.93813 2.78328 4.97831 2.92353 5.0751C3.06379 5.17189 3.16227 5.31812 3.19922 5.48448L4.45547 9.10635C4.31025 9.12236 4.16872 9.16249 4.03672 9.2251L3.17109 6.5501C3.10065 6.27737 2.94329 6.03499 2.72284 5.85964C2.50238 5.68429 2.23081 5.58551 1.94922 5.57823V5.57198ZM5.09922 14.3939L2.98672 12.5157C2.84955 12.3938 2.75166 12.234 2.70547 12.0564L1.34297 6.98448C1.33003 6.93129 1.32374 6.87671 1.32422 6.82198C1.3246 6.67931 1.37379 6.54106 1.46361 6.4302C1.55343 6.31935 1.67848 6.24257 1.81797 6.2126C1.98543 6.18747 2.15619 6.22668 2.29591 6.32234C2.43563 6.418 2.53395 6.56302 2.57109 6.72823L3.53047 9.69073L3.51172 9.71885C3.34659 10.0056 3.30165 10.346 3.38672 10.6657C3.42856 10.8249 3.50181 10.9741 3.60217 11.1045C3.70253 11.2349 3.82797 11.3439 3.97109 11.4251L5.76172 12.4595C5.83314 12.4968 5.91623 12.5052 5.99364 12.4827C6.07105 12.4602 6.13679 12.4087 6.17712 12.339C6.21746 12.2692 6.22927 12.1865 6.2101 12.1082C6.19092 12.0299 6.14224 11.9621 6.07422 11.9189L4.28359 10.8845C4.21218 10.8439 4.14948 10.7895 4.09907 10.7247C4.04867 10.6598 4.01155 10.5856 3.98984 10.5064C3.94879 10.3459 3.97117 10.1757 4.05234 10.0314C4.09317 9.96015 4.14763 9.89769 4.2126 9.84753C4.27757 9.79738 4.35179 9.76051 4.43101 9.73903C4.51023 9.71756 4.59291 9.7119 4.67431 9.72238C4.75572 9.73286 4.83427 9.75927 4.90547 9.80011L7.66797 11.4189C7.99608 11.6131 8.26819 11.8891 8.45771 12.2199C8.64723 12.5507 8.74767 12.9251 8.74922 13.3064V16.2501H5.62422V15.5626C5.62369 15.3418 5.57666 15.1237 5.48621 14.9223C5.39575 14.7209 5.26389 14.5409 5.09922 14.3939ZM9.06172 18.7501H5.31172V16.8751H9.06172V18.7501Z" fill="#0F3041"/>
<path d="M14.421 1.60381C14.1308 1.31319 13.7863 1.08264 13.407 0.925348C13.0277 0.768054 12.6211 0.687105 12.2104 0.687134C11.7998 0.687163 11.3932 0.768169 11.0139 0.925517C10.6346 1.08287 10.2901 1.31347 10 1.60412C9.70998 1.31346 9.36546 1.08286 8.98618 0.925516C8.60691 0.768175 8.20032 0.687187 7.7897 0.687187C7.37909 0.687187 6.9725 0.768175 6.59322 0.925516C6.21395 1.08286 5.86943 1.31346 5.57939 1.60412C4.9945 2.19027 4.66602 2.98451 4.66602 3.81256C4.66602 4.64062 4.9945 5.43485 5.57939 6.021L9.77939 10.221C9.83799 10.2796 9.91746 10.3125 10.0003 10.3125C10.0832 10.3125 10.1627 10.2796 10.2213 10.221L14.4213 6.021C15.0061 5.43476 15.3346 4.64045 15.3345 3.81234C15.3345 2.98424 15.0059 2.18997 14.421 1.60381ZM10 9.5582L6.02095 5.57913C5.67162 5.22932 5.43384 4.78379 5.33768 4.29886C5.24151 3.81393 5.29128 3.31138 5.48069 2.85473C5.6701 2.39809 5.99064 2.00785 6.4018 1.73335C6.81296 1.45885 7.29627 1.31242 7.79064 1.31256C8.11904 1.31143 8.44438 1.3757 8.74768 1.50163C9.05098 1.62755 9.32617 1.81261 9.5572 2.046L9.77908 2.26787C9.83768 2.32646 9.91715 2.35937 10 2.35937C10.0829 2.35937 10.1624 2.32646 10.221 2.26787L10.4435 2.04537C10.6755 1.81295 10.951 1.62856 11.2544 1.50275C11.5577 1.37694 11.8829 1.31218 12.2113 1.31218C12.5397 1.31218 12.8648 1.37694 13.1682 1.50275C13.4715 1.62856 13.7471 1.81295 13.9791 2.04537C14.4472 2.51412 14.7101 3.14949 14.7101 3.81194C14.7101 4.47439 14.4472 5.10976 13.9791 5.5785L10 9.5582Z" fill="#0F3041"/>
</svg>
