<svg width="30" height="30" viewBox="0 0 30 30" fill="none" xmlns="http://www.w3.org/2000/svg">
<path d="M9.23773 6.01489C8.97834 6.01489 8.76799 6.22518 8.76799 6.48463C8.76799 7.05446 8.30439 7.51806 7.73457 7.51806C7.16475 7.51806 6.70115 7.05446 6.70115 6.48463C6.70115 5.91481 7.16475 5.45121 7.73457 5.45121C7.99396 5.45121 8.20432 5.24092 8.20432 4.98147C8.20432 4.72201 7.99402 4.51172 7.73457 4.51172C6.64672 4.51172 5.76172 5.39678 5.76172 6.48458C5.76172 7.57237 6.64678 8.45743 7.73457 8.45743C8.82236 8.45743 9.70742 7.57237 9.70742 6.48458C9.70748 6.22518 9.49713 6.01489 9.23773 6.01489Z" fill="#0F3041"/>
<path d="M9.23773 11.5227C8.97834 11.5227 8.76799 11.733 8.76799 11.9924C8.76799 12.5623 8.30439 13.0259 7.73457 13.0259C7.16475 13.0259 6.70115 12.5623 6.70115 11.9924C6.70115 11.4226 7.16475 10.959 7.73457 10.959C7.99396 10.959 8.20432 10.7487 8.20432 10.4893C8.20432 10.2298 7.99402 10.0195 7.73457 10.0195C6.64672 10.0195 5.76172 10.9046 5.76172 11.9924C5.76172 13.0802 6.64678 13.9652 7.73457 13.9652C8.82236 13.9652 9.70742 13.0802 9.70742 11.9924C9.70748 11.733 9.49713 11.5227 9.23773 11.5227Z" fill="#0F3041"/>
<path d="M14.7485 12.5391H11.2412C10.9818 12.5391 10.7715 12.7494 10.7715 13.0088C10.7715 13.2683 10.9818 13.4786 11.2412 13.4786H14.7485C15.0079 13.4786 15.2183 13.2683 15.2183 13.0088C15.2183 12.7494 15.008 12.5391 14.7485 12.5391Z" fill="#0F3041"/>
<path d="M14.7485 10.5273H11.2412C10.9818 10.5273 10.7715 10.7376 10.7715 10.9971C10.7715 11.2565 10.9818 11.4668 11.2412 11.4668H14.7485C15.0079 11.4668 15.2183 11.2565 15.2183 10.9971C15.2183 10.7376 15.008 10.5273 14.7485 10.5273Z" fill="#0F3041"/>
<path d="M13.7465 18.0469H11.2412C10.9818 18.0469 10.7715 18.2572 10.7715 18.5166C10.7715 18.7761 10.9818 18.9864 11.2412 18.9864H13.7465C14.0059 18.9864 14.2162 18.7761 14.2162 18.5166C14.2162 18.2572 14.0059 18.0469 13.7465 18.0469Z" fill="#0F3041"/>
<path d="M14.7485 16.0352H11.2412C10.9818 16.0352 10.7715 16.2454 10.7715 16.5049C10.7715 16.7644 10.9818 16.9746 11.2412 16.9746H14.7485C15.0079 16.9746 15.2183 16.7644 15.2183 16.5049C15.2183 16.2454 15.008 16.0352 14.7485 16.0352Z" fill="#0F3041"/>
<path d="M19.258 7.01172H11.2412C10.9818 7.01172 10.7715 7.22201 10.7715 7.48146C10.7715 7.74092 10.9818 7.95121 11.2412 7.95121H19.2579C19.5173 7.95121 19.7277 7.74092 19.7277 7.48146C19.7277 7.22201 19.5174 7.01172 19.258 7.01172Z" fill="#0F3041"/>
<path d="M17.2538 5H11.2412C10.9818 5 10.7715 5.21029 10.7715 5.46975C10.7715 5.7292 10.9818 5.93949 11.2412 5.93949H17.2538C17.5132 5.93949 17.7235 5.7292 17.7235 5.46975C17.7235 5.21029 17.5132 5 17.2538 5Z" fill="#0F3041"/>
<path d="M9.23773 17.0305C8.97834 17.0305 8.76799 17.2408 8.76799 17.5003C8.76799 18.0701 8.30439 18.5337 7.73457 18.5337C7.16475 18.5337 6.70115 18.0701 6.70115 17.5003C6.70115 16.9304 7.16475 16.4668 7.73457 16.4668C7.99396 16.4668 8.20432 16.2565 8.20432 15.9971C8.20432 15.7376 7.99402 15.5273 7.73457 15.5273C6.64672 15.5273 5.76172 16.4124 5.76172 17.5002C5.76172 18.588 6.64678 19.473 7.73457 19.473C8.82236 19.473 9.70742 18.588 9.70742 17.5002C9.70748 17.2408 9.49713 17.0305 9.23773 17.0305Z" fill="#0F3041"/>
<path d="M21.2612 0H4.22572C3.4142 0 2.75391 0.660234 2.75391 1.47182V22.5156C2.75391 23.3272 3.41414 23.9875 4.22572 23.9875H12.7435C13.0029 23.9875 13.2132 23.7772 13.2132 23.5177C13.2132 23.2583 13.0029 23.048 12.7435 23.048H4.22572C3.93217 23.048 3.69334 22.8091 3.69334 22.5156V1.47182C3.69334 1.17826 3.93217 0.939434 4.22572 0.939434H21.2612C21.5548 0.939434 21.7936 1.17826 21.7936 1.47182V17.0043C21.7936 17.2637 22.0039 17.474 22.2633 17.474C22.5227 17.474 22.7331 17.2637 22.7331 17.0043V1.47182C22.733 0.660234 22.0728 0 21.2612 0Z" fill="#0F3041"/>
<path d="M25.6988 19.0341C25.2622 18.9906 24.8259 19.1143 24.4805 19.3766C24.2054 18.915 23.7363 18.5875 23.1936 18.5331C22.7569 18.4896 22.3206 18.6134 21.9753 18.8755C21.7002 18.4139 21.2311 18.0864 20.6883 18.0321C20.3549 17.9988 20.022 18.063 19.7295 18.2119V12.2299C19.7295 11.7443 19.5229 11.2787 19.1624 10.9526C18.8024 10.6268 18.3172 10.4678 17.8311 10.5164C16.964 10.6033 16.2848 11.3873 16.2848 12.3014V18.2985L14.904 19.6793C14.1702 20.4131 13.874 21.4542 14.1117 22.4643L15.16 26.9196C15.5848 28.725 17.1767 29.9858 19.0313 29.9858H23.2681C25.461 29.9858 27.2451 28.2017 27.2451 26.0087V20.8193C27.2452 19.905 26.5659 19.121 25.6988 19.0341ZM26.3057 26.0086C26.3057 27.6835 24.943 29.0462 23.2681 29.0462H19.0314C17.6149 29.0462 16.3989 28.0832 16.0745 26.7043L15.0262 22.249C14.8635 21.5579 15.0662 20.8455 15.5683 20.3435L16.2848 19.6269V21.2487C16.2848 21.5081 16.4951 21.7184 16.7545 21.7184C17.014 21.7184 17.2243 21.5081 17.2243 21.2487V12.3014C17.2243 11.864 17.532 11.4905 17.9248 11.4512C18.1505 11.4286 18.3663 11.499 18.5322 11.6492C18.6961 11.7975 18.7901 12.0092 18.7901 12.23V20.4972C18.7901 20.7566 19.0004 20.967 19.2598 20.967C19.5193 20.967 19.7296 20.7567 19.7296 20.4972V19.7456C19.7296 19.5249 19.8235 19.3132 19.9874 19.1649C20.1535 19.0146 20.3692 18.9441 20.5948 18.9669C20.9876 19.0062 21.2954 19.3797 21.2954 19.8171V20.9981C21.2954 21.2575 21.5057 21.4679 21.7651 21.4679C22.0245 21.4679 22.2349 21.2576 22.2349 20.9981V20.2466C22.2349 20.0258 22.3288 19.8141 22.4927 19.6658C22.6588 19.5155 22.8745 19.4451 23.1001 19.4678C23.4929 19.5071 23.8007 19.8806 23.8007 20.318V21.4991C23.8007 21.7585 24.011 21.9689 24.2704 21.9689C24.5298 21.9689 24.7402 21.7586 24.7402 21.4991V20.7475C24.7402 20.5268 24.8341 20.3151 24.998 20.1668C25.1641 20.0166 25.3797 19.946 25.6054 19.9688C25.9982 20.0081 26.306 20.3816 26.306 20.819V26.0086H26.3057Z" fill="#0F3041"/>
</svg>
