<svg width="23" height="22" viewBox="0 0 23 22" fill="none" xmlns="http://www.w3.org/2000/svg">
<path d="M13.3327 1.83333H5.99935C5.51312 1.83333 5.0468 2.02648 4.70299 2.3703C4.35917 2.71412 4.16602 3.18043 4.16602 3.66666V18.3333C4.16602 18.8196 4.35917 19.2859 4.70299 19.6297C5.0468 19.9735 5.51312 20.1667 5.99935 20.1667H16.9993C17.4856 20.1667 17.9519 19.9735 18.2957 19.6297C18.6395 19.2859 18.8327 18.8196 18.8327 18.3333V7.33333L13.3327 1.83333Z" stroke="#466EFE" stroke-width="1.5" stroke-linecap="round" stroke-linejoin="round"/>
<path d="M13.334 1.83333V7.33333H18.834" stroke="#466EFE" stroke-width="1.5" stroke-linecap="round" stroke-linejoin="round"/>
<path d="M15.1673 11.9167H7.83398" stroke="#466EFE" stroke-width="1.5" stroke-linecap="round" stroke-linejoin="round"/>
<path d="M15.1673 15.5833H7.83398" stroke="#466EFE" stroke-width="1.5" stroke-linecap="round" stroke-linejoin="round"/>
<path d="M9.66732 8.25H8.75065H7.83398" stroke="#466EFE" stroke-width="1.5" stroke-linecap="round" stroke-linejoin="round"/>
</svg>
