<svg width="18" height="27" viewBox="0 0 18 27" fill="none" xmlns="http://www.w3.org/2000/svg">
<path d="M17.6924 4.09147C17.1797 2.50116 16.0902 1.1865 14.6162 0.380741L14.1676 0.126291C13.6549 -0.149363 12.9927 0.0414748 12.6936 0.550375C12.4159 1.05927 12.6082 1.7166 13.1209 2.01346L13.6763 2.31032C15.6843 3.41294 16.432 5.93623 15.3639 7.92942C15.1717 8.26869 15.193 8.56555 15.2357 8.73518C15.3426 9.07444 15.6203 9.30769 15.8125 9.41371H15.8339C16.0475 9.49853 16.2611 9.51973 16.4534 9.47732C16.8379 9.39251 17.1797 9.11685 17.3079 8.8624C18.0769 7.39932 18.2051 5.70298 17.6924 4.09147Z" fill="#D60F29"/>
<path d="M4.85369 24.9779L4.29828 24.681C2.43977 23.6632 1.628 21.4156 2.4184 19.4648C2.50385 19.2527 2.61066 19.0619 2.71747 18.8711C2.88837 18.5954 2.9311 18.2773 2.86701 17.9805C2.80292 17.6836 2.61066 17.4716 2.33296 17.3232C1.7989 17.0051 1.1794 17.302 0.880326 17.7472C0.794877 17.8957 0.730791 18.0229 0.688066 18.1077C0.581255 18.3198 0.495807 18.5318 0.410358 18.7438C-0.721838 21.67 0.559893 25.0627 3.3797 26.6106L3.82831 26.865C4.06329 26.9923 4.31964 27.0347 4.55462 26.9711C4.85369 26.9074 5.1314 26.7166 5.3023 26.4409C5.45184 26.1865 5.4732 25.9108 5.38775 25.6352C5.3023 25.3383 5.11004 25.1263 4.85369 24.9779Z" fill="#D60F29"/>
<path d="M12.4157 11.0467L7.37426 8.29014C6.8402 7.99329 6.19934 8.18412 5.90026 8.69302C5.62256 9.20192 5.79345 9.85925 6.32751 10.1561L11.4972 12.9763C12.5225 13.5488 13.2702 14.5242 13.5479 15.6692C13.8256 16.8142 13.612 18.0016 12.9284 18.9982C11.7321 20.7582 9.25413 21.3095 7.31017 20.2493L7.22472 20.2069C6.96837 20.0584 6.6693 20.016 6.3916 20.1009C6.11389 20.1857 5.90027 20.3553 5.75073 20.6098C5.47302 21.1187 5.64392 21.776 6.17797 22.0728L6.37023 22.1789C7.69469 22.8998 9.19004 23.1331 10.664 22.8574C10.8777 22.815 11.0913 22.7726 11.3049 22.709C12.9712 22.2001 14.317 21.0975 15.1074 19.5708C15.8764 18.1077 16.0046 16.4113 15.4919 14.7998C14.9792 13.1883 13.8897 11.8524 12.4157 11.0467Z" fill="#D60F29"/>
<path d="M8.95614 17.472C8.9775 17.472 9.02023 17.4508 9.04159 17.4508C9.3193 17.366 9.55428 17.1964 9.68245 16.9419C9.96016 16.433 9.78927 15.7757 9.25521 15.4788L4.83324 13.0404C3.80785 12.489 3.08154 11.5561 2.80383 10.4322C2.50476 9.30842 2.67565 8.1634 3.29516 7.1668C4.49144 5.27963 6.99082 4.66471 8.9775 5.76733L11.0496 6.91235C11.306 7.03958 11.5837 7.08199 11.8614 6.99717C12.1391 6.91235 12.3741 6.74272 12.5023 6.48827C12.6518 6.23382 12.6732 5.93696 12.6091 5.66131C12.5236 5.38565 12.3527 5.15241 12.0964 5.02518L9.96016 3.85895C8.42208 3.03199 6.67038 2.84116 5.00413 3.35005C3.33788 3.85895 1.99206 4.98277 1.20166 6.53068C0.453986 7.99376 0.304451 9.66889 0.817143 11.2592C1.32984 12.8283 2.39795 14.143 3.87194 14.9487L8.25119 17.3448C8.44345 17.472 8.69979 17.5144 8.95614 17.472Z" fill="#D60F29"/>
</svg>
