<svg width="20" height="20" viewBox="0 0 20 20" fill="none" xmlns="http://www.w3.org/2000/svg">
<g clip-path="url(#clip0)">
<path d="M17.7079 7.60583H12.6562C12.4944 7.60583 12.3633 7.73701 12.3633 7.89876C12.3633 8.06052 12.4945 8.19169 12.6562 8.19169H17.7079C17.8697 8.19169 18.0008 8.06052 18.0008 7.89876C18.0008 7.73701 17.8696 7.60583 17.7079 7.60583Z" fill="#0F3041"/>
<path d="M17.7079 9.37195H12.6562C12.4944 9.37195 12.3633 9.50312 12.3633 9.66488C12.3633 9.82664 12.4945 9.95781 12.6562 9.95781H17.7079C17.8697 9.95781 18.0008 9.82664 18.0008 9.66488C18.0008 9.50312 17.8696 9.37195 17.7079 9.37195Z" fill="#0F3041"/>
<path d="M18.0008 11.431C18.0008 11.2692 17.8696 11.1381 17.7079 11.1381H12.6562C12.4944 11.1381 12.3633 11.2692 12.3633 11.431C12.3633 11.5927 12.4945 11.7239 12.6562 11.7239H17.7079C17.8696 11.724 18.0008 11.5928 18.0008 11.431Z" fill="#0F3041"/>
<path d="M12.6562 12.9042C12.4944 12.9042 12.3633 13.0353 12.3633 13.1971C12.3633 13.3589 12.4945 13.49 12.6562 13.49H15.182C15.3438 13.49 15.475 13.3589 15.475 13.1971C15.475 13.0353 15.3438 12.9042 15.182 12.9042H12.6562Z" fill="#0F3041"/>
<path d="M19.4768 3.44496L16.4565 0.424609C16.1881 0.156055 15.8204 0 15.4315 0H5.49246C4.69324 0 4.04305 0.650234 4.04305 1.44945V4.44871C4.04305 4.61051 4.17422 4.74164 4.33598 4.74164C4.49773 4.74164 4.62891 4.61047 4.62891 4.44871V1.44945C4.62891 0.973281 5.01629 0.585898 5.49246 0.585898H15.4315C15.4947 0.585898 15.5568 0.592656 15.6176 0.606055V3.27387C15.6176 3.83074 16.0706 4.28379 16.6275 4.28379H19.295C19.3085 4.34492 19.3154 4.40754 19.3154 4.46988V18.5506C19.3154 19.0267 18.928 19.4141 18.4519 19.4141H14.5164C14.8589 18.902 14.8044 18.2011 14.3525 17.7492L11.6891 15.0857C11.4951 14.8917 11.2127 14.8396 10.9705 14.928L10.397 14.3545C12.0148 12.108 11.7763 8.99961 9.79777 7.02105C7.60195 4.82527 3.99922 4.78152 1.75973 7.02105C-0.456367 9.23715 -0.456367 12.843 1.75973 15.0591C3.73652 17.0359 6.84785 17.2709 9.09301 15.6582L9.66664 16.2318C9.57828 16.474 9.63039 16.7564 9.82441 16.9504L12.2882 19.4141H5.49246C5.01633 19.4141 4.62891 19.0268 4.62891 18.5506V17.6117C4.62891 17.4499 4.49773 17.3188 4.33598 17.3188C4.17422 17.3188 4.04305 17.45 4.04305 17.6117V18.5506C4.04305 19.3498 4.69328 20 5.49246 20H18.4519C19.2511 20 19.9014 19.3498 19.9014 18.5506V4.46988C19.9014 4.08973 19.7505 3.71844 19.4768 3.44496ZM2.17406 14.6448C0.186406 12.6571 0.186406 9.42301 2.17406 7.43531C4.18703 5.42234 7.41781 5.46961 9.38355 7.43531C11.2138 9.26559 11.3843 12.1736 9.78012 14.1996C9.53387 14.5106 9.24969 14.7949 8.93836 15.0414C6.92527 16.6352 4.01012 16.4809 2.17406 14.6448ZM9.55437 15.2887C9.72004 15.1412 9.87805 14.9836 10.0285 14.8145L10.5109 15.297L10.0356 15.7722L9.55324 15.2898C9.55363 15.2894 9.55398 15.289 9.55437 15.2887ZM12.9021 19.1995L10.2387 16.5361C10.2005 16.4979 10.2005 16.4359 10.2387 16.3977L10.2426 16.3938C10.2427 16.3937 10.2427 16.3937 10.2428 16.3936L11.1364 15.5C11.1745 15.4618 11.2367 15.4618 11.2748 15.5L13.9383 18.1634C14.2239 18.4491 14.2239 18.9139 13.9383 19.1995C13.6519 19.4859 13.1885 19.4859 12.9021 19.1995ZM16.2035 3.27387V1.00016L18.9012 3.69789H16.6275C16.3937 3.69789 16.2035 3.50766 16.2035 3.27387Z" fill="#0F3041"/>
<path d="M12.319 1.90088H6.50703C6.15961 1.90088 5.87695 2.18353 5.87695 2.53096V3.65373C5.87695 4.00115 6.15961 4.28381 6.50703 4.28381H12.319C12.6665 4.28381 12.9491 4.00115 12.9491 3.65373V2.53096C12.9491 2.18353 12.6664 1.90088 12.319 1.90088ZM12.3632 3.65369C12.3632 3.67802 12.3434 3.69787 12.319 3.69787H6.50703C6.4827 3.69787 6.46285 3.67806 6.46285 3.65369V2.53096C6.46285 2.50662 6.48266 2.48678 6.50703 2.48678H12.319C12.3434 2.48678 12.3632 2.50658 12.3632 2.53096V3.65369H12.3632Z" fill="#0F3041"/>
<path d="M8.9722 14.233C10.7328 12.4724 10.7328 9.60767 8.9722 7.84708C7.21157 6.08646 4.34692 6.08646 2.5863 7.84708C1.9013 8.53212 1.462 9.39888 1.31591 10.3537C1.29145 10.5136 1.40122 10.6631 1.56118 10.6876C1.72118 10.7122 1.8706 10.6023 1.89505 10.4423C2.02216 9.61169 2.40442 8.85751 3.00056 8.26134C4.5327 6.72919 7.02571 6.72919 8.5579 8.26134C10.028 9.73142 10.0873 12.0859 8.7363 13.6277C8.60763 13.3659 8.38876 13.1527 8.10251 13.0267C7.75548 12.8739 7.1572 12.7768 6.78919 12.7283L6.78763 12.3583C7.14325 12.0965 7.39567 11.7013 7.46821 11.2442C7.53075 11.2182 7.58813 11.1798 7.63728 11.1303C7.73536 11.0315 7.78884 10.9006 7.78794 10.7615C7.78532 10.3732 7.78567 9.72974 7.78567 9.35489C7.78567 9.0004 7.52739 8.70505 7.18915 8.64712C7.12423 8.31751 6.83302 8.06813 6.48462 8.06813H5.07044C4.34142 8.06813 3.74829 8.66122 3.74829 9.39024V10.7669C3.74829 10.9806 3.87872 11.1645 4.06415 11.243C4.13505 11.6863 4.37493 12.0714 4.71364 12.3333L4.71536 12.737C4.34778 12.7886 3.75036 12.8907 3.40454 13.0464C3.14157 13.1649 2.93606 13.3658 2.80958 13.6132C2.34122 13.074 2.0311 12.4241 1.90813 11.7173C1.8804 11.5579 1.72868 11.4511 1.56931 11.4789C1.40989 11.5066 1.30317 11.6583 1.33091 11.8177C1.49075 12.7362 1.92485 13.5714 2.58634 14.2329C4.35466 16.0013 7.21938 15.9859 8.9722 14.233ZM5.07044 8.65407H6.48462C6.55751 8.65407 6.61681 8.71337 6.61681 8.78626C6.61681 9.02696 6.81263 9.22278 7.05333 9.22278H7.06767C7.14056 9.22278 7.19985 9.28208 7.19985 9.35497V9.5122L6.84575 9.47899C6.49888 9.44653 6.14411 9.5288 5.84692 9.71079C5.68392 9.8106 5.49673 9.86337 5.3056 9.86337H4.33423V9.39036C4.33419 8.98435 4.66446 8.65407 5.07044 8.65407ZM4.33419 10.7044V10.4492H5.30556C5.60477 10.4492 5.89774 10.3666 6.1529 10.2103C6.34274 10.094 6.56938 10.0415 6.79099 10.0622L7.19997 10.1006C7.2002 10.281 7.20067 10.5191 7.20169 10.7033C7.0386 10.7319 6.91169 10.8694 6.90173 11.0397C6.86685 11.6387 6.36841 12.1079 5.767 12.1079C5.16685 12.1079 4.66767 11.6391 4.63052 11.0406C4.62005 10.8719 4.49509 10.7353 4.33419 10.7044ZM5.767 12.6938C5.91743 12.6938 6.06349 12.674 6.20294 12.6375L6.20364 12.8009C6.20395 12.8767 6.22134 12.949 6.25212 13.014C6.10645 13.1123 5.93392 13.1665 5.75302 13.167C5.75212 13.167 5.75122 13.167 5.75032 13.167C5.5711 13.167 5.39985 13.1143 5.2547 13.0181C5.28493 12.9528 5.30188 12.8804 5.30157 12.8047L5.30083 12.6295C5.44935 12.6713 5.60575 12.6938 5.767 12.6938ZM3.26829 14.0626C3.31083 13.8483 3.44767 13.6697 3.64509 13.5807C3.84438 13.4909 4.22825 13.4008 4.71169 13.3294C4.98786 13.6005 5.35767 13.7529 5.7502 13.7529H5.75466C6.15013 13.7517 6.52192 13.596 6.79778 13.3206C7.28185 13.388 7.66645 13.4748 7.86649 13.5629C8.09067 13.6616 8.2356 13.8495 8.2711 14.0786C6.82138 15.2693 4.71216 15.2639 3.26829 14.0626Z" fill="#0F3041"/>
</g>
<defs>
<clipPath id="clip0">
<rect width="20" height="20" fill="white"/>
</clipPath>
</defs>
</svg>
