<svg width="20" height="22" viewBox="0 0 20 22" fill="none" xmlns="http://www.w3.org/2000/svg">
<g clip-path="url(#clip0)">
<path d="M17.3505 15.9286H14.9295C14.7068 15.9286 14.526 15.7304 14.526 15.4862C14.526 15.2419 14.7068 15.0437 14.9295 15.0437H17.3505C18.0179 15.0437 18.561 14.4481 18.561 13.7163V7.52187C18.561 6.79004 18.0179 6.19449 17.3505 6.19449H2.0175C1.35011 6.19449 0.807 6.79004 0.807 7.52187V13.7163C0.807 14.4481 1.35011 15.0437 2.0175 15.0437H4.4385C4.66123 15.0437 4.842 15.2419 4.842 15.4862C4.842 15.7304 4.66123 15.9286 4.4385 15.9286H2.0175C0.904647 15.9286 0 14.9357 0 13.7163V7.52187C0 6.30245 0.904647 5.30957 2.0175 5.30957H17.3505C18.4634 5.30957 19.368 6.30245 19.368 7.52187V13.7163C19.368 14.9357 18.4634 15.9286 17.3505 15.9286Z" fill="#FF3355"/>
<path d="M11.7006 18.5832H6.85858C6.63585 18.5832 6.45508 18.3849 6.45508 18.1407C6.45508 17.8965 6.63585 17.6982 6.85858 17.6982H11.7006C11.9233 17.6982 12.1041 17.8965 12.1041 18.1407C12.1041 18.3849 11.9233 18.5832 11.7006 18.5832Z" fill="#FF3355"/>
<path d="M11.7006 16.8136H6.85858C6.63585 16.8136 6.45508 16.6154 6.45508 16.3712C6.45508 16.1269 6.63585 15.9287 6.85858 15.9287H11.7006C11.9233 15.9287 12.1041 16.1269 12.1041 16.3712C12.1041 16.6154 11.9233 16.8136 11.7006 16.8136Z" fill="#FF3355"/>
<path d="M8.47258 15.0441H6.85858C6.63585 15.0441 6.45508 14.8459 6.45508 14.6016C6.45508 14.3574 6.63585 14.1592 6.85858 14.1592H8.47258C8.69531 14.1592 8.87608 14.3574 8.87608 14.6016C8.87608 14.8459 8.69531 15.0441 8.47258 15.0441Z" fill="#FF3355"/>
<path d="M14.9297 6.19445C14.7069 6.19445 14.5262 5.99622 14.5262 5.75199V2.2123C14.5262 1.48047 13.9831 0.884921 13.3157 0.884921H6.05266C5.38527 0.884921 4.84216 1.48047 4.84216 2.2123V5.75199C4.84216 5.99622 4.66139 6.19445 4.43866 6.19445C4.21592 6.19445 4.03516 5.99622 4.03516 5.75199V2.2123C4.03516 0.992881 4.9398 0 6.05266 0H13.3157C14.4285 0 15.3332 0.992881 15.3332 2.2123V5.75199C15.3332 5.99622 15.1524 6.19445 14.9297 6.19445Z" fill="#FF3355"/>
<path d="M13.3157 21.2381H6.05266C4.9398 21.2381 4.03516 20.2452 4.03516 19.0258V11.9464C4.03516 11.7021 4.21592 11.5039 4.43866 11.5039H14.9297C15.1524 11.5039 15.3332 11.7021 15.3332 11.9464V19.0258C15.3332 20.2452 14.4285 21.2381 13.3157 21.2381ZM4.84216 12.3888V19.0258C4.84216 19.7576 5.38527 20.3531 6.05266 20.3531H13.3157C13.9831 20.3531 14.5262 19.7576 14.5262 19.0258V12.3888H4.84216Z" fill="#FF3355"/>
</g>
<defs>
<clipPath id="clip0">
<rect width="19.368" height="21.2381" fill="white"/>
</clipPath>
</defs>
</svg>
