<svg width="20" height="20" viewBox="0 0 20 20" fill="none" xmlns="http://www.w3.org/2000/svg">
<g clip-path="url(#clip0)">
<path d="M19.9107 4.66809C19.4278 1.96603 17.0769 -0.000772092 14.332 0.000977729C12.221 0.00347747 10.2862 1.17873 9.31088 3.051C7.49965 1.22035 4.54732 1.20465 2.71668 3.01584C1.83069 3.89246 1.33249 5.08729 1.33336 6.33366V7.00026C1.33336 7.18433 1.4826 7.33356 1.66666 7.33356C1.68033 7.33227 1.69391 7.33015 1.70732 7.32723C1.86372 8.67893 2.53378 9.91876 3.5788 10.7902C3.60746 10.8139 3.63746 10.8342 3.66646 10.8569V12.0931L0.89474 13.017C0.770669 13.0582 0.682136 13.1683 0.668429 13.2983L0.00183075 19.631C-0.0172923 19.814 0.115569 19.978 0.298675 19.9971C0.310258 19.9984 0.32184 19.999 0.333464 19.9989H11.6656C11.8497 19.9989 11.9989 19.8497 11.9989 19.6656C11.9989 19.6545 11.9984 19.6434 11.9973 19.6323L11.3307 13.2996C11.317 13.1696 11.2284 13.0596 11.1044 13.0183L8.33265 12.0931V10.8569C8.36164 10.8342 8.39164 10.8139 8.4203 10.7902C8.99504 10.3097 9.46174 9.7132 9.78983 9.03972C10.6481 10.1966 11.9147 10.9831 13.3321 11.2395V11.9998H12.6655C12.4815 11.9998 12.3322 12.149 12.3322 12.3331V13.6663C12.3322 13.8503 12.4815 13.9995 12.6655 13.9995V18.3324C12.6655 19.2528 13.4117 19.9989 14.332 19.9989C15.2524 19.9989 15.9985 19.2528 15.9985 18.3324V13.9995C16.1826 13.9995 16.3318 13.8503 16.3318 13.6663V12.3331C16.3318 12.149 16.1826 11.9998 15.9985 11.9998H15.3319V11.2395C18.411 10.6893 20.461 7.74715 19.9107 4.66809ZM3.66646 19.3323H0.703759L1.30903 13.5813L3.66646 12.7953V19.3323ZM1.99996 6.33366C1.99546 4.12935 3.77878 2.33878 5.98309 2.33428C7.14856 2.33191 8.25686 2.83906 9.01691 3.7226C8.70786 4.54572 8.60062 5.43092 8.70427 6.304C7.91165 6.16147 7.33437 5.4725 7.33275 4.66717C7.33291 4.4831 7.1838 4.33374 6.99974 4.33358C6.97533 4.33358 6.951 4.3362 6.92712 4.34154L6.72714 4.3862C5.04507 4.75783 3.44373 5.42963 1.99996 6.36933V6.33366ZM4.33305 19.3323V14.9065L5.51427 14.5125L4.67802 17.5789C4.65669 17.6579 4.66498 17.7421 4.70135 17.8155L5.46027 19.3323H4.33305ZM4.33305 14.2035V13.5389L5.13064 13.9389L4.33305 14.2035ZM5.35462 17.6325L5.99955 15.2661L6.64448 17.6325L5.99955 18.9204L5.35462 17.6325ZM7.66605 19.3323H6.53883L7.29942 17.8148C7.33579 17.7414 7.34408 17.6573 7.32275 17.5782L6.4865 14.5118L7.66605 14.9065V19.3323ZM7.66605 14.2035L6.86846 13.9369L7.66605 13.5389V14.2035ZM7.66605 12.7937L5.99955 13.6269L4.33305 12.7937V11.2765C5.38324 11.7964 6.61586 11.7964 7.66605 11.2765V12.7937ZM10.6901 13.5813L11.2953 19.3323H8.33265V12.7953L10.6901 13.5813ZM7.99335 10.2779C6.83855 11.2408 5.16055 11.2408 4.00575 10.2779C3.01057 9.44635 2.40946 8.23572 2.34859 6.94027C3.68008 6.07015 5.1533 5.43921 6.70181 5.07579C6.89063 6.12514 7.76566 6.91365 8.82893 6.9926C8.94267 7.47305 9.11919 7.93642 9.35388 8.37079C9.0707 9.11226 8.60229 9.76882 7.99335 10.2779ZM15.3319 18.3324C15.3319 18.8847 14.8843 19.3323 14.332 19.3323C13.7798 19.3323 13.3321 18.8847 13.3321 18.3324V13.9995H15.3319V18.3324ZM15.6652 12.6664V13.333H12.9988V12.6664H15.6652ZM13.9987 11.9998V11.3162C14.1097 11.3228 14.2194 11.3332 14.332 11.3332C14.4447 11.3332 14.5543 11.3228 14.6653 11.3162V11.9998H13.9987ZM14.332 10.6666C11.5709 10.6666 9.33254 8.4282 9.33254 5.66707C9.33254 2.90593 11.5709 0.667576 14.332 0.667576C17.0932 0.667576 19.3315 2.90593 19.3315 5.66707C19.3284 8.42691 17.0919 10.6634 14.332 10.6666Z" fill="#0F3041"/>
<path d="M14.3329 1.33423C11.9399 1.33423 10 3.27411 10 5.66712C10 8.06012 11.9399 10 14.3329 10C16.7259 10 18.6658 8.06012 18.6658 5.66712C18.663 3.27524 16.7247 1.33698 14.3329 1.33423ZM14.3329 9.33341C12.3081 9.33341 10.6666 7.69195 10.6666 5.66712C10.6666 3.64228 12.3081 2.00083 14.3329 2.00083C16.3577 2.00083 17.9992 3.64228 17.9992 5.66712C17.9968 7.69095 16.3567 9.33099 14.3329 9.33341Z" fill="#0F3041"/>
<path d="M16.567 3.43164L16.0957 3.90293C17.0674 4.87833 17.0674 6.45583 16.0957 7.43123L16.567 7.90252C17.7989 6.66677 17.7989 4.66735 16.567 3.43164Z" fill="#0F3041"/>
<path d="M15.1824 8.03581L15.4805 8.63202L16.147 8.29874L15.8489 7.70253L15.1824 8.03581Z" fill="#0F3041"/>
</g>
<defs>
<clipPath id="clip0">
<rect width="20" height="20" fill="white"/>
</clipPath>
</defs>
</svg>
