<svg width="78" height="26" viewBox="0 0 78 26" fill="none" xmlns="http://www.w3.org/2000/svg">
<g clip-path="url(#clip0)">
<path d="M34.2696 15.6047C33.5382 15.2143 32.5424 14.9096 31.2823 14.6907C30.3747 14.522 29.6697 14.3327 29.1645 14.1197C28.6593 13.9097 28.3127 13.6671 28.1188 13.3949C27.9249 13.1257 27.828 12.8033 27.828 12.4306C27.828 11.8892 28.1012 11.4484 28.6475 11.1112C29.1939 10.7739 29.8959 10.6024 30.7536 10.6024C31.4439 10.6024 32.0548 10.7029 32.5924 10.9071C33.1299 11.1112 33.6087 11.4395 34.0287 11.8981C34.2314 12.117 34.4781 12.2531 34.7719 12.3033C35.0656 12.3536 35.33 12.3122 35.565 12.1761C35.7999 12.0075 35.9351 11.7916 35.9674 11.5283C35.9997 11.265 35.9174 11.0165 35.7148 10.7799C35.2095 10.1379 34.5457 9.62614 33.7232 9.24453C32.9008 8.86291 31.9256 8.67358 30.8006 8.67358C29.9106 8.67358 29.0822 8.81854 28.3185 9.10549C27.5548 9.39244 26.935 9.82434 26.4651 10.4012C25.9951 10.9781 25.7601 11.6969 25.7601 12.5578C25.7601 13.5044 26.1508 14.3179 26.9321 14.9953C27.7134 15.6728 28.953 16.155 30.6508 16.4419C31.9608 16.6608 32.889 16.9655 33.4354 17.356C33.9817 17.7465 34.2461 18.2287 34.2285 18.8026C34.2108 19.3795 33.9347 19.8646 33.3972 20.261C32.8597 20.6574 32.0108 20.8586 30.8505 20.8586C30.0604 20.8586 29.3378 20.7284 28.6828 20.4651C28.0277 20.2019 27.5225 19.8617 27.17 19.4357C26.9674 19.2316 26.7294 19.1103 26.4504 19.0689C26.1743 19.0274 25.9011 19.1073 25.6309 19.3114C25.3959 19.5155 25.2608 19.7611 25.2284 20.048C25.1932 20.335 25.2784 20.5894 25.4811 20.8083C26.0685 21.4502 26.8557 21.9472 27.8368 22.2933C28.8208 22.6395 29.8401 22.814 30.9005 22.814C31.9931 22.814 32.9448 22.6365 33.7614 22.2815C34.5751 21.9265 35.2066 21.4443 35.6531 20.8349C36.0996 20.2255 36.3199 19.5333 36.3199 18.7523C36.3199 18.1104 36.1612 17.5217 35.8411 16.9892C35.5238 16.4538 35.001 15.9923 34.2696 15.6047Z" fill="#0F3041"/>
<path d="M48.0138 9.59951C46.9623 8.98124 45.7844 8.67358 44.4714 8.67358C43.1437 8.67358 41.9511 8.98124 40.8908 9.59951C39.8333 10.2178 38.9962 11.0579 38.3823 12.1259C37.7684 13.1908 37.4629 14.4037 37.4629 15.7556C37.4629 17.0927 37.7566 18.2938 38.3441 19.3617C38.9316 20.4267 39.7305 21.2698 40.738 21.8881C41.7455 22.5063 42.8882 22.811 44.1659 22.814C46.3219 22.8169 47.3705 22.3969 48.6395 21.3171C48.8921 21.1012 49.2827 21.2846 49.2827 21.6189C49.2827 21.9413 49.3826 22.1987 49.5853 22.3939C49.788 22.5892 50.0465 22.6868 50.3666 22.6868C50.6692 22.6868 50.9247 22.5892 51.1362 22.3939C51.3448 22.1987 51.4505 21.9413 51.4505 21.6189V15.7556C51.4329 14.4007 51.1186 13.1908 50.5047 12.1259C49.8967 11.0609 49.0654 10.2178 48.0138 9.59951ZM48.707 18.3707C48.287 19.1487 47.7083 19.7581 46.9681 20.1989C46.2279 20.6397 45.3966 20.8586 44.4714 20.8586C43.5461 20.8586 42.7149 20.6397 41.9746 20.1989C41.2344 19.7581 40.647 19.1487 40.2093 18.3707C39.7716 17.5927 39.5543 16.72 39.5543 15.7556C39.5543 14.7735 39.7716 13.8978 40.2093 13.1287C40.647 12.3596 41.2344 11.7502 41.9746 11.3005C42.7149 10.8509 43.5461 10.629 44.4714 10.629C45.3966 10.629 46.2279 10.8538 46.9681 11.3005C47.7083 11.7502 48.287 12.3596 48.707 13.1287C49.1271 13.8978 49.3386 14.7735 49.3386 15.7556C49.3386 16.72 49.1271 17.5927 48.707 18.3707Z" fill="#0F3041"/>
<path d="M70.6098 9.33331C69.8549 8.87774 68.9884 8.647 68.0132 8.647C66.9557 8.647 66.0099 8.88366 65.1786 9.35698C64.4972 9.74451 63.9391 10.2652 63.4985 10.9101C61.8477 8.718 60.5758 8.46063 58.5814 8.46063C57.6062 8.46063 56.7426 8.68842 55.9848 9.14694C55.2299 9.60251 54.6395 10.2592 54.2194 11.1142C53.7994 11.9691 53.5879 12.9808 53.5879 14.1464V21.4325C53.5879 21.755 53.6848 22.0123 53.8787 22.2076C54.0725 22.4028 54.3281 22.5005 54.6483 22.5005C54.9684 22.5005 55.2269 22.4028 55.4296 22.2076C55.6323 22.0123 55.7322 21.755 55.7322 21.4325V14.1493C55.7322 13.5902 55.7997 13.0962 55.9348 12.6584C56.0934 12.2916 56.3108 11.9602 56.5957 11.6674C57.2331 11.0077 58.0497 10.6764 59.0396 10.6764C59.9649 10.6764 60.7198 10.9929 61.3072 11.6289C61.8947 12.2649 62.1884 13.1642 62.1884 14.3327V21.6189C62.1884 21.9413 62.2942 22.1987 62.5027 22.394C62.7113 22.5892 62.9698 22.6868 63.2723 22.6868C63.5925 22.6868 63.851 22.5892 64.0536 22.394C64.2563 22.1987 64.3562 21.9413 64.3562 21.6189V14.3357C64.3386 13.2352 64.647 12.3507 65.2756 11.6822C65.9071 11.0136 66.7149 10.6793 67.7077 10.6793C68.633 10.6793 69.3878 10.9958 69.9753 11.6319C70.5628 12.2679 70.8565 13.1672 70.8565 14.3357V21.6219C70.8565 21.9443 70.9564 22.2017 71.1591 22.3969C71.3617 22.5922 71.6202 22.6898 71.9404 22.6898C72.2606 22.6898 72.5161 22.5922 72.71 22.3969C72.9038 22.2017 73.0008 21.9443 73.0008 21.6219V14.3357C73.0008 13.1672 72.7893 12.1555 72.3693 11.3035C71.9551 10.4456 71.3676 9.79184 70.6098 9.33331Z" fill="#0F3041"/>
<path d="M76.1269 9.86877C75.8067 9.86877 75.5482 9.9664 75.3455 10.1616C75.1428 10.3569 75.043 10.6231 75.043 10.9604V21.5953C75.043 21.9177 75.1428 22.178 75.3455 22.3821C75.5482 22.5863 75.8067 22.6868 76.1269 22.6868C76.447 22.6868 76.7026 22.5863 76.8965 22.3821C77.0903 22.178 77.1873 21.9177 77.1873 21.5953V10.9604C77.1873 10.6231 77.0903 10.3569 76.8965 10.1616C76.7026 9.9664 76.447 9.86877 76.1269 9.86877Z" fill="#0F3041"/>
<path d="M20.2943 4.77461C20.0211 3.08546 19.1252 1.58267 17.774 0.541369L17.3599 0.224837C16.884 -0.141985 16.1967 -0.0502795 15.8324 0.431914C15.4682 0.91115 15.5593 1.60338 16.0381 1.9702L16.5521 2.36661C18.3909 3.78065 18.7668 6.45194 17.3892 8.32155C17.1396 8.63216 17.119 8.92799 17.1484 9.12027C17.1983 9.47822 17.4392 9.75925 17.6301 9.89237C17.636 9.89533 17.6418 9.89829 17.6477 9.90421C17.8475 10.0255 18.056 10.0669 18.2558 10.058C18.6611 10.0403 19.0253 9.80363 19.1957 9.55514C20.1797 8.17364 20.5704 6.47856 20.2943 4.77461Z" fill="#D60F29"/>
<path d="M4.34175 24.0328L3.82771 23.6364C2.12111 22.3229 1.65408 19.9297 2.73796 18.066C2.85251 17.8678 2.98469 17.6785 3.13156 17.501C3.33717 17.2496 3.43998 16.9212 3.40767 16.6224C3.37536 16.3355 3.22262 16.0781 2.97001 15.8828C2.46772 15.4953 1.80682 15.6965 1.45434 16.1106C1.33978 16.2438 1.25166 16.3562 1.18998 16.442C1.05192 16.6342 0.925616 16.8324 0.811059 17.0366C-0.760419 19.841 0.012102 23.4589 2.60578 25.4557L3.01994 25.7723C3.23143 25.935 3.48404 26.006 3.73078 25.9971C4.04214 25.9823 4.34468 25.8344 4.54736 25.5681C4.7236 25.3344 4.79997 25.0475 4.76179 24.7576C4.72066 24.4677 4.5738 24.2103 4.34175 24.0328Z" fill="#D60F29"/>
<path d="M13.9815 11.0401L9.34633 7.47545C8.87049 7.10863 8.18315 7.20033 7.81892 7.68252C7.45469 8.16176 7.54574 8.85399 8.02453 9.22081L12.7595 12.8624C13.7054 13.5901 14.3075 14.6936 14.4132 15.8916C14.519 17.1045 14.1283 18.2701 13.3059 19.1723C11.8372 20.7875 9.28759 20.9769 7.50462 19.6072L7.41356 19.5362C7.18151 19.3587 6.89659 19.2818 6.60873 19.3203C6.32087 19.3587 6.06532 19.5096 5.88908 19.7403C5.52485 20.2196 5.61591 20.9118 6.0947 21.2786L6.27681 21.4176C7.48993 22.3525 8.95567 22.811 10.4596 22.7429C10.6799 22.7341 10.9031 22.7104 11.1234 22.6779C12.8565 22.4205 14.3751 21.4886 15.4031 20.0539C16.3901 18.6754 16.7837 16.9773 16.5076 15.2734C16.2315 13.5842 15.3356 12.0785 13.9815 11.0401Z" fill="#D60F29"/>
<path d="M9.55919 17.0277C9.5915 17.0277 9.62381 17.0247 9.65613 17.0188C9.94398 16.9804 10.1995 16.8295 10.3758 16.5987C10.74 16.1195 10.6489 15.4273 10.1702 15.0605L6.10488 11.9277C5.16787 11.2088 4.58333 10.1586 4.45703 8.97535C4.33072 7.79206 4.68614 6.6413 5.45279 5.73608C6.91852 4.0055 9.50045 3.75405 11.3304 5.16218L13.2279 6.62059C13.46 6.79809 13.7449 6.875 14.0328 6.83654C14.3206 6.79809 14.5762 6.64721 14.7524 6.41647C14.9287 6.18277 15.005 5.89582 14.9668 5.60591C14.9287 5.31601 14.7789 5.05864 14.5497 4.88114L12.5905 3.3754C11.1924 2.2986 9.4652 1.8519 7.72629 2.11519C5.98738 2.37847 4.46584 3.32215 3.44364 4.76873C2.46845 6.14727 2.08072 7.83347 2.34802 9.51967C2.61531 11.197 3.50239 12.6879 4.84182 13.7204L8.85129 16.8029C9.05691 16.9597 9.30364 17.0395 9.55919 17.0277Z" fill="#D60F29"/>
</g>
<defs>
<clipPath id="clip0">
<rect width="77.1875" height="26" fill="white"/>
</clipPath>
</defs>
</svg>
