<svg width="200" height="68" viewBox="0 0 200 68" fill="none" xmlns="http://www.w3.org/2000/svg">
<path fill-rule="evenodd" clip-rule="evenodd" d="M52.5396 12.5554C51.783 8.11327 49.3062 4.16105 45.5653 1.42568L44.4229 0.590561L44.4233 0.591001C43.1032 -0.374295 41.2088 -0.131541 40.2005 1.13236C39.1923 2.39626 39.4463 4.20987 40.7664 5.17516L42.1891 6.21522C47.2745 9.93347 48.3126 16.9553 44.5069 21.8759C43.8184 22.689 43.7623 23.467 43.8372 23.9784C43.9745 24.9164 44.6406 25.6592 45.1693 26.0097L45.1738 26.0125L45.174 26.0126C45.1872 26.021 45.2008 26.0295 45.2143 26.037C45.7646 26.354 46.3425 26.4684 46.8946 26.4442C48.0127 26.3958 49.026 25.7784 49.4936 25.1187C52.2203 21.4933 53.3021 17.0327 52.5396 12.5554ZM80.4379 38.0705C83.5921 38.623 86.0842 39.3879 87.9138 40.3644C89.7434 41.3422 91.0576 42.4992 91.8569 43.8376C92.6553 45.176 93.0556 46.6529 93.0556 48.2667C93.0556 50.2214 92.4978 51.9628 91.3839 53.4922C90.2692 55.0216 88.6919 56.2324 86.6519 57.1245C84.6112 58.0171 82.2246 58.4625 79.4915 58.4625C76.8414 58.4625 74.2865 58.0275 71.8256 57.1564C69.3655 56.2861 67.3987 55.0435 65.9269 53.4284C65.4224 52.8768 65.2112 52.2395 65.296 51.5165C65.38 50.7949 65.7158 50.1786 66.3056 49.6685C66.9777 49.1588 67.6618 48.9577 68.3559 49.0635C69.05 49.1697 69.6493 49.4775 70.1539 49.9871C71.0371 51.0497 72.299 51.9099 73.9395 52.5682C75.5796 53.2277 77.3875 53.556 79.3651 53.556C82.267 53.556 84.3905 53.0569 85.7371 52.0581C87.0825 51.0606 87.7766 49.8385 87.819 48.3943C87.8606 46.9506 87.1981 45.7394 85.8319 44.7616C84.4645 43.7847 82.1411 43.0202 78.8601 42.4677C74.6115 41.7456 71.5105 40.5348 69.5546 38.835C67.599 37.1364 66.621 35.0969 66.621 32.7173C66.621 30.5506 67.2096 28.7454 68.3875 27.3008C69.5645 25.8566 71.1103 24.7735 73.0247 24.051C74.9378 23.3289 77.0093 22.9674 79.2388 22.9674C82.0563 22.9674 84.4961 23.4452 86.5572 24.4011C88.6175 25.357 90.2796 26.6421 91.5414 28.2563C92.046 28.852 92.2563 29.478 92.1723 30.1367C92.0876 30.7954 91.7513 31.3374 91.1628 31.7614C90.5734 32.1019 89.9109 32.2073 89.1757 32.0801C88.4392 31.9528 87.819 31.6132 87.3145 31.0603C86.2625 29.9134 85.0638 29.085 83.7184 28.575C82.3718 28.0653 80.8369 27.8109 79.1128 27.8109C76.9678 27.8109 75.2109 28.2353 73.8447 29.085C72.4773 29.9352 71.794 31.0397 71.794 32.3987C71.794 33.3336 72.0359 34.1414 72.5197 34.8202C73.0031 35.5003 73.8763 36.1057 75.1382 36.6364C76.3996 37.1683 78.1664 37.646 80.4379 38.0705ZM121.28 51.8993C123.152 50.7947 124.62 49.2649 125.683 47.3106C126.746 45.3572 127.279 43.1683 127.279 40.7468C127.279 38.2833 126.746 36.0851 125.683 34.151C124.62 32.2186 123.152 30.6887 121.28 29.5632C119.408 28.4377 117.302 27.8743 114.963 27.8743C112.622 27.8743 110.517 28.4377 108.645 29.5632C106.772 30.6887 105.284 32.2186 104.178 34.151C103.071 36.0851 102.519 38.2833 102.519 40.7468C102.519 43.1683 103.071 45.3572 104.178 47.3106C105.284 49.2649 106.772 50.7947 108.645 51.8993C110.517 53.0042 112.622 53.5559 114.963 53.5559C117.302 53.5559 119.408 53.0042 121.28 51.8993ZM114.963 22.9674C118.281 22.9674 121.269 23.7428 123.929 25.2932C126.587 26.8444 128.693 28.9574 130.246 31.6337C131.799 34.3105 132.596 37.3487 132.639 40.7468V55.4677C132.639 56.2755 132.373 56.9233 131.841 57.4115C131.309 57.9002 130.661 58.1441 129.895 58.1441C129.087 58.1441 128.427 57.9002 127.917 57.4115C127.407 56.9233 127.151 56.2755 127.151 55.4677C127.151 54.6285 126.167 54.1655 125.525 54.7066C122.309 57.4174 119.652 58.4736 114.197 58.4623C110.963 58.4564 108.071 57.6882 105.518 56.1365C102.965 54.5865 100.944 52.4723 99.4558 49.796C97.966 47.1196 97.2223 44.1032 97.2223 40.7468C97.2223 37.3487 97.9983 34.3105 99.5513 31.6337C101.104 28.9574 103.221 26.8444 105.901 25.2932C108.581 23.7428 111.601 22.9674 114.963 22.9674ZM184.719 25.1417C182.745 24.0019 180.484 23.431 177.94 23.431C175.175 23.431 172.707 24.0232 170.535 25.2051C168.754 26.1754 167.294 27.4699 166.148 29.0783C161.839 23.6067 158.517 22.9674 153.31 22.9674C150.766 22.9674 148.505 23.5375 146.531 24.678C144.556 25.8181 143.02 27.4553 141.923 29.587C140.827 31.7204 140.278 34.2435 140.278 37.1573V55.3376C140.278 56.1405 140.531 56.7848 141.034 57.2702C141.539 57.756 142.209 57.9984 143.042 57.9984C143.876 57.9984 144.556 57.756 145.082 57.2702C145.609 56.7848 145.872 56.1405 145.872 55.3376V37.1573C145.872 35.7659 146.05 34.5277 146.4 33.4397C146.811 32.5216 147.385 31.6978 148.123 30.9696C149.789 29.3228 151.917 28.4994 154.507 28.4994C156.92 28.4994 158.894 29.2911 160.431 30.8744C161.967 32.4582 162.735 34.7071 162.735 37.6209V55.802C162.735 56.605 163.009 57.2493 163.557 57.7343C164.106 58.22 164.776 58.4625 165.565 58.4625C166.399 58.4625 167.079 58.22 167.606 57.7343C168.132 57.2493 168.395 56.605 168.395 55.802V37.6209C168.351 34.8762 169.153 32.6702 170.798 31.0013C172.443 29.3337 174.56 28.4994 177.15 28.4994C179.563 28.4994 181.537 29.2911 183.074 30.8744C184.609 32.4582 185.378 34.7071 185.378 37.6209V55.802C185.378 56.605 185.641 57.2493 186.168 57.7343C186.694 58.22 187.374 58.4625 188.208 58.4625C189.041 58.4625 189.71 58.22 190.216 57.7343C190.719 57.2493 190.972 56.605 190.972 55.802V37.6209C190.972 34.7071 190.423 32.1844 189.327 30.0515C188.23 27.919 186.694 26.2818 184.719 25.1417ZM195.229 27.1766C195.752 26.6913 196.427 26.4473 197.255 26.4473C198.082 26.4473 198.747 26.6913 199.249 27.1766C199.749 27.6628 200 28.3287 200 29.1737V55.7362C200 56.5398 199.749 57.1948 199.249 57.7019C198.747 58.2094 198.082 58.4625 197.255 58.4625C196.427 58.4625 195.752 58.2094 195.229 57.7019C194.706 57.1948 194.444 56.5398 194.444 55.7362V29.1737C194.444 28.3287 194.706 27.6628 195.229 27.1766ZM10.4861 61.1647L11.8956 62.2266C12.5289 62.7034 12.9361 63.3958 13.0417 64.1753C13.1477 64.9548 12.9398 65.729 12.4557 66.3535C11.8988 67.0733 11.0689 67.4689 10.2172 67.5075C9.54154 67.5376 8.85224 67.3432 8.27351 66.9067L7.14242 66.0545C0.0310745 60.695 -2.08322 50.9764 2.22317 43.4481C2.53574 42.9016 2.88426 42.3651 3.25871 41.8523C3.42842 41.6201 3.67138 41.3197 3.98167 40.9601C4.94214 39.8429 6.75751 39.3081 8.13246 40.3449C8.82767 40.8689 9.2417 41.5541 9.33088 42.3269C9.42324 43.1324 9.14115 44.0148 8.57561 44.6874C8.17614 45.1651 7.81352 45.6775 7.49822 46.2078C4.52719 51.2112 5.81115 57.6407 10.4861 61.1647ZM35.7313 28.4914L23.946 19.3671C22.7325 18.427 20.9912 18.6633 20.0643 19.8941C19.1375 21.124 19.371 22.8895 20.5841 23.8287L32.6274 33.1538C35.0329 35.0155 36.5661 37.8431 36.8338 40.9099C37.1053 44.0165 36.1059 46.9982 34.0191 49.3069C30.2827 53.4409 23.8025 53.9281 19.2663 50.4169L19.0324 50.2354C18.4446 49.7799 17.7162 49.5856 16.9841 49.684C16.2506 49.7833 15.5995 50.1669 15.1507 50.7624C14.2238 51.9927 14.4574 53.7581 15.6709 54.6978L16.1311 55.054C19.2182 57.4444 22.9411 58.6212 26.7658 58.4453C27.3274 58.4192 27.8919 58.3644 28.456 58.2796C32.8622 57.6187 36.7253 55.2346 39.3352 51.5655C41.8467 48.0342 42.8436 43.6878 42.1423 39.3255C41.4468 35.0014 39.1701 31.1542 35.7313 28.4914ZM26.2118 45.2123C26.1304 45.2243 26.0486 45.2318 25.9677 45.2358C25.3272 45.2668 24.7029 45.0605 24.1872 44.6421L14.115 36.4811C10.7447 33.7509 8.51892 29.8019 7.84753 25.3633C7.17238 20.9003 8.14838 16.4333 10.5965 12.7862C13.1657 8.95898 16.9875 6.46518 21.3576 5.76525C25.729 5.06355 30.072 6.24648 33.5855 9.09268L38.5072 13.0806C39.0881 13.5512 39.4615 14.2339 39.5587 15.0025C39.6556 15.771 39.4649 16.5342 39.0213 17.1505C38.5777 17.7668 37.9343 18.163 37.2099 18.2661C36.4859 18.3693 35.7661 18.1665 35.1853 17.6959L30.4163 13.831C25.815 10.1034 19.3263 10.7714 15.6451 15.3518C13.7182 17.7491 12.8302 20.7936 13.1452 23.924C13.4603 27.058 14.9295 29.8347 17.2829 31.7419L27.5095 40.0273C28.7083 40.9995 28.9391 42.8248 28.0232 44.0971C27.5796 44.7134 26.9362 45.1096 26.2118 45.2123Z" fill="white"/>
</svg>
