<svg width="23" height="22" viewBox="0 0 23 22" fill="none" xmlns="http://www.w3.org/2000/svg">
<path d="M13.1517 1.8335H5.67253C5.17663 1.8335 4.70104 2.02665 4.35038 2.37047C3.99973 2.71428 3.80273 3.1806 3.80273 3.66683V18.3335C3.80273 18.8197 3.99973 19.286 4.35038 19.6299C4.70104 19.9737 5.17663 20.1668 5.67253 20.1668H16.8913C17.3872 20.1668 17.8628 19.9737 18.2134 19.6299C18.5641 19.286 18.7611 18.8197 18.7611 18.3335V7.3335L13.1517 1.8335Z" stroke="#969CBA" stroke-width="1.5" stroke-linecap="round" stroke-linejoin="round"/>
<path d="M13.1504 1.8335V7.3335H18.7598" stroke="#969CBA" stroke-width="1.5" stroke-linecap="round" stroke-linejoin="round"/>
<path d="M15.0202 11.9165H7.54102" stroke="#969CBA" stroke-width="1.5" stroke-linecap="round" stroke-linejoin="round"/>
<path d="M15.0202 15.5835H7.54102" stroke="#969CBA" stroke-width="1.5" stroke-linecap="round" stroke-linejoin="round"/>
<path d="M9.41081 8.25H8.47591H7.54102" stroke="#969CBA" stroke-width="1.5" stroke-linecap="round" stroke-linejoin="round"/>
</svg>
