<svg width="30" height="30" viewBox="0 0 30 30" fill="none" xmlns="http://www.w3.org/2000/svg">
<path d="M4.04297 11.9258H8.58327C8.90683 11.9258 9.16921 11.6634 9.16921 11.3398C9.16921 11.0163 8.90683 10.7539 8.58327 10.7539H4.04297C3.71941 10.7539 3.45703 11.0163 3.45703 11.3398C3.45703 11.6634 3.71936 11.9258 4.04297 11.9258Z" fill="#0F3041"/>
<path d="M4.04297 15.9824H8.58327C8.90683 15.9824 9.16921 15.72 9.16921 15.3965C9.16921 15.0729 8.90683 14.8105 8.58327 14.8105H4.04297C3.71941 14.8105 3.45703 15.0729 3.45703 15.3965C3.45703 15.72 3.71936 15.9824 4.04297 15.9824Z" fill="#0F3041"/>
<path d="M9.66826 25.8039C9.54539 25.5092 9.19881 25.3646 8.90303 25.487C8.60813 25.609 8.46435 25.9576 8.58663 26.2522C8.70909 26.5472 9.05602 26.6911 9.35127 26.5692C9.646 26.4475 9.79084 26.0984 9.66826 25.8039Z" fill="#0F3041"/>
<path d="M29.8428 16.7366L22.8734 9.25531L25.0073 7.12643C25.3779 6.75992 25.582 6.2709 25.582 5.74947C25.582 5.23531 25.3829 4.75133 25.0217 4.38682C24.2745 3.63213 23.0445 3.6224 22.2799 4.36531C22.278 4.36713 22.2762 4.36895 22.2743 4.37076L19.3487 7.28938H18.2555V5.0392C18.2555 4.71564 17.9931 4.45326 17.6696 4.45326H14.5669V3.97461C14.5669 3.65105 14.3045 3.38867 13.9809 3.38867C13.6574 3.38867 13.395 3.65105 13.395 3.97461V4.45326H11.2545V3.97461C11.2545 3.65105 10.9921 3.38867 10.6686 3.38867C10.345 3.38867 10.0826 3.65105 10.0826 3.97461V4.45326H7.94209V3.97461C7.94209 3.65105 7.67971 3.38867 7.35615 3.38867C7.0326 3.38867 6.77021 3.65105 6.77021 3.97461V4.45326H4.62961V3.97461C4.62961 3.65105 4.36723 3.38867 4.04367 3.38867C3.72012 3.38867 3.45773 3.65105 3.45773 3.97461V4.45326H0.585937C0.262383 4.45326 0 4.71564 0 5.0392V26.0275C0 26.351 0.262383 26.6134 0.585937 26.6134H6.56672C6.89027 26.6134 7.15266 26.351 7.15266 26.0275C7.15266 25.7039 6.89027 25.4415 6.56672 25.4415H1.17187V5.62514H3.45773V6.15676C3.45773 6.48031 3.72012 6.7427 4.04367 6.7427C4.36723 6.7427 4.62961 6.48031 4.62961 6.15676V5.62514H6.77016V6.15676C6.77016 6.48031 7.03254 6.7427 7.35609 6.7427C7.67965 6.7427 7.94203 6.48031 7.94203 6.15676V5.62514H10.0826V6.15676C10.0826 6.48031 10.345 6.7427 10.6685 6.7427C10.9921 6.7427 11.2545 6.48031 11.2545 6.15676V5.62514H13.3949V6.15676C13.3949 6.48031 13.6573 6.7427 13.9809 6.7427C14.3044 6.7427 14.5668 6.48031 14.5668 6.15676V5.62514H17.0836V7.29266C16.0311 7.33543 15.026 7.77986 14.2798 8.52195L9.96779 12.8339C9.70723 13.0944 9.75562 13.5407 10.0639 13.7403C10.5494 14.0543 11.0936 14.2573 11.6623 14.3391C11.8518 14.3664 12.0441 14.3803 12.2378 14.3803C12.2388 14.3803 12.2396 14.3802 12.2405 14.3802L11.5679 15.0512C11.5191 15.1 11.4804 15.1567 11.4517 15.2179L9.57211 18.0412C9.40271 18.2956 9.33357 18.5861 9.35889 18.8677H4.04367C3.72012 18.8677 3.45773 19.1301 3.45773 19.4536C3.45773 19.7772 3.72012 20.0396 4.04367 20.0396H10.6427C10.8963 20.0396 11.152 19.955 11.3609 19.8131L14.2178 17.8718C14.2516 17.8497 14.2843 17.8235 14.3129 17.7951L15.638 16.4731L17.0837 17.9156V25.4415H11.7219C11.3983 25.4415 11.1359 25.7039 11.1359 26.0275C11.1359 26.351 11.3983 26.6134 11.7219 26.6134H17.6696C17.9931 26.6134 18.2555 26.351 18.2555 26.0275V19.0594C18.9963 19.6746 19.9198 20.0099 20.8951 20.0099H23.2328C23.7189 20.0099 24.1903 20.2115 24.5231 20.5599L28.9873 25.3041C29.3424 25.6815 29.9999 25.4214 29.9999 24.9025V17.1359C30 16.9878 29.9438 16.845 29.8428 16.7366ZM15.1085 9.35064C15.6761 8.78311 16.4532 8.46113 17.2559 8.46113H18.1738L14.5232 12.103C14.1854 12.4273 13.8656 12.7452 13.433 12.9457C12.7947 13.2415 12.0531 13.2887 11.382 13.077L15.1085 9.35064ZM23.0987 5.20361C23.4044 4.90912 23.8927 4.91223 24.1891 5.21158C24.3316 5.35537 24.4101 5.54639 24.4101 5.74947C24.4101 5.95549 24.3295 6.14856 24.1815 6.29504L18.0578 12.4044L17.7628 12.1092C17.4864 11.8329 17.1377 11.6299 16.7612 11.5258L23.0987 5.20361ZM10.7022 18.8438C10.6521 18.8779 10.6053 18.874 10.5618 18.8309C10.497 18.7667 10.5299 18.7173 10.5476 18.6907L12.0787 16.3908L12.9833 17.2939L10.7022 18.8438ZM13.8995 16.5521L12.8125 15.465L13.9289 14.351C14.0343 14.7325 14.2431 15.0808 14.5225 15.3601L14.8084 15.6454L13.8995 16.5521ZM28.8281 23.4249L25.3736 19.7538C24.8178 19.1718 24.0375 18.8381 23.2328 18.8381H20.8951C20.1035 18.8381 19.3592 18.5305 18.7993 17.9721L15.349 14.5294C14.8509 14.1559 14.9622 13.3278 15.3492 12.9347C15.784 12.5115 16.5088 12.5124 16.9341 12.9378L19.7373 15.7411C19.9628 15.9665 20.3404 15.9665 20.566 15.7411C20.7948 15.5122 20.7948 15.1412 20.566 14.9124L18.8865 13.2329L22.0433 10.0835L28.8281 17.3666V23.4249Z" fill="#0F3041"/>
</svg>
