<svg width="20" height="20" viewBox="0 0 20 20" fill="none" xmlns="http://www.w3.org/2000/svg">
<path d="M5.15075 4.27097C4.77567 3.8833 4.25883 3.66509 3.71942 3.66663H3.61675C3.07788 3.66555 2.5618 3.88372 2.18709 4.27097C1.83459 4.63338 1.64743 5.12526 1.66976 5.6303L1.70876 6.52763C1.76784 7.55446 2.62705 8.35146 3.65542 8.33329H3.68075C4.70912 8.35146 5.56833 7.55446 5.62741 6.52763L5.66808 5.6303C5.69041 5.12526 5.50325 4.63338 5.15075 4.27097ZM4.96141 6.49996C4.91625 7.16925 4.35133 7.68388 3.68075 7.66663H3.65542C2.98484 7.68388 2.41992 7.16925 2.37476 6.49996L2.36309 6.22763C2.99851 6.19934 3.60863 5.97038 4.10575 5.57363C4.31075 5.8768 4.62021 6.09384 4.97508 6.1833L4.96141 6.49996ZM4.54342 4.9243C4.52487 4.78213 4.41746 4.66776 4.27675 4.6403C4.13654 4.6113 3.99363 4.67588 3.92275 4.8003C3.91842 4.8073 3.50475 5.46163 2.33743 5.56163C2.33455 5.2528 2.45334 4.95526 2.66809 4.7333C2.91696 4.47684 3.25938 4.33247 3.61675 4.3333H3.71942C4.07679 4.33247 4.41921 4.47684 4.66808 4.7333C4.86254 4.93592 4.97796 5.20155 4.99341 5.48196C4.76275 5.37888 4.59542 5.17155 4.54342 4.9243Z" fill="#0F3041"/>
<path d="M18.1508 12.271C17.7757 11.8834 17.2588 11.6652 16.7194 11.6667H16.6168C16.0779 11.6656 15.5618 11.8838 15.1871 12.271C14.8346 12.6334 14.6474 13.1253 14.6698 13.6304L14.7088 14.5277C14.7679 15.5545 15.6271 16.3515 16.6554 16.3334H16.6808C17.7091 16.3515 18.5683 15.5545 18.6274 14.5277L18.6681 13.6304C18.6904 13.1253 18.5033 12.6334 18.1508 12.271ZM18.0014 13.6034L17.9614 14.5C17.9163 15.1693 17.3513 15.6839 16.6808 15.6667H16.6554C15.9848 15.6839 15.4199 15.1693 15.3748 14.5L15.3348 13.6017C15.3219 13.2787 15.4424 12.9647 15.6681 12.7334C15.917 12.4769 16.2594 12.3325 16.6168 12.3334H16.7194C17.0768 12.3325 17.4192 12.4769 17.6681 12.7334C17.8942 12.9652 18.0148 13.2799 18.0014 13.6034Z" fill="#0F3041"/>
<path d="M10.2972 4.84766C9.93955 4.50171 9.37197 4.50171 9.0143 4.84766L5.29298 8.56899C5.2304 8.63157 5.14548 8.66674 5.05698 8.66666H1.66666C0.746664 8.66774 0.00108333 9.41332 0 10.3333V15C0 15.5523 0.447707 16 0.999997 16C1.11354 16 1.22625 15.9807 1.33333 15.943V16.3333C1.33333 16.5174 1.48258 16.6666 1.66666 16.6666H5.66665C5.85073 16.6666 5.99998 16.5174 5.99998 16.3333V10.9287C5.99994 10.8443 6.03185 10.7631 6.08931 10.7013L10.319 6.15233C10.6733 5.78608 10.6635 5.20195 10.2972 4.84766ZM9.84292 5.6862C9.84172 5.68737 9.84051 5.68854 9.8393 5.68966L5.59998 10.2477C5.42831 10.4329 5.33302 10.6761 5.33331 10.9287V16H1.99999V11C1.99999 10.8159 1.85074 10.6667 1.66666 10.6667C1.48258 10.6667 1.33333 10.8159 1.33333 11V15C1.33333 15.1841 1.18408 15.3333 0.999997 15.3333C0.815914 15.3333 0.666664 15.1841 0.666664 15V10.3333C0.666664 9.78103 1.11437 9.33332 1.66666 9.33332H5.05698C5.32244 9.33415 5.57719 9.22866 5.76431 9.04032L9.48563 5.319C9.58709 5.22275 9.74617 5.22275 9.84763 5.319C9.94772 5.4217 9.94563 5.58612 9.84292 5.6862Z" fill="#0F3041"/>
<path d="M3.66732 9.66663C3.48323 9.66663 3.33398 9.81588 3.33398 9.99996V14C3.33398 14.184 3.48323 14.3333 3.66732 14.3333C3.8514 14.3333 4.00065 14.184 4.00065 14V9.99996C4.00065 9.81588 3.8514 9.66663 3.66732 9.66663Z" fill="#0F3041"/>
<path d="M10.8151 12.271C10.4404 11.8838 9.92432 11.6656 9.38544 11.6667H9.28278C8.7439 11.6656 8.22782 11.8838 7.85311 12.271C7.50062 12.6334 7.31341 13.1253 7.33578 13.6304L7.37478 14.5277C7.43387 15.5545 8.29307 16.3515 9.32144 16.3333H9.34678C10.3752 16.3515 11.2344 15.5545 11.2934 14.5277L11.3324 13.6304C11.3548 13.1253 11.1676 12.6334 10.8151 12.271ZM10.6674 13.6034L10.6274 14.5C10.5823 15.1693 10.0174 15.6839 9.34678 15.6667H9.32144C8.65086 15.6839 8.08595 15.1693 8.04078 14.5L8.00078 13.6017C7.98791 13.2787 8.10845 12.9647 8.33411 12.7334C8.58299 12.4769 8.9254 12.3325 9.28278 12.3334H9.38544C9.74282 12.3325 10.0852 12.4769 10.3341 12.7334C10.5602 12.9651 10.6808 13.2799 10.6674 13.6034Z" fill="#0F3041"/>
<path d="M11.0557 16.6666H7.611C6.72167 16.6675 6.00092 17.3883 6 18.2776V19.6666C6 19.8507 6.14925 20 6.33333 20C6.51742 20 6.66667 19.8507 6.66667 19.6666V18.2776C6.66721 17.7563 7.08971 17.3338 7.611 17.3333H11.0557C11.577 17.3338 11.9994 17.7563 12 18.2776V19.6666C12 19.8507 12.1492 20 12.3333 20C12.5174 20 12.6667 19.8507 12.6667 19.6666V18.2776C12.6657 17.3883 11.945 16.6675 11.0557 16.6666Z" fill="#0F3041"/>
<path d="M18.3896 16.6666H14.945C14.0556 16.6675 13.3349 17.3883 13.334 18.2776V19.6666C13.334 19.8507 13.4832 20 13.6673 20C13.8514 20 14.0006 19.8507 14.0006 19.6666V18.2776C14.0012 17.7563 14.4237 17.3338 14.945 17.3333H18.3896C18.911 17.3338 19.3334 17.7563 19.334 18.2776V19.6666C19.334 19.8507 19.4832 20 19.6673 20C19.8514 20 20.0006 19.8507 20.0006 19.6666V18.2776C19.9997 17.3883 19.279 16.6675 18.3896 16.6666Z" fill="#0F3041"/>
<path d="M19.0153 0H7.31539C6.76801 0.00533332 6.32818 0.452624 6.33206 0.999998V5.99999C6.33206 6.18407 6.48131 6.33332 6.66539 6.33332C6.84947 6.33332 6.99872 6.18407 6.99872 5.99999V2H19.332V9.99998C19.3363 10.1794 19.1947 10.3284 19.0153 10.3333H7.64038C7.4563 10.3333 7.30705 10.4826 7.30705 10.6666C7.30705 10.8507 7.4563 11 7.64038 11H19.0153C19.5627 10.9946 20.0025 10.5474 19.9987 9.99998V0.999998C20.0025 0.452624 19.5627 0.00533332 19.0153 0ZM19.332 1.33333H6.99872V0.999998C6.99443 0.820623 7.13601 0.671582 7.31539 0.666665H19.0153C19.1947 0.671582 19.3363 0.820623 19.332 0.999998V1.33333Z" fill="#0F3041"/>
<path d="M18.3333 4.25C18.1492 4.25 18 4.39925 18 4.58333V9.33332C18 9.51741 18.1492 9.66665 18.3333 9.66665C18.5174 9.66665 18.6667 9.51741 18.6667 9.33332V4.58333C18.6667 4.39925 18.5174 4.25 18.3333 4.25Z" fill="#0F3041"/>
<path d="M16.9993 6.33331C16.8153 6.33331 16.666 6.48256 16.666 6.66665V9.33331C16.666 9.51739 16.8153 9.66664 16.9993 9.66664C17.1834 9.66664 17.3327 9.51739 17.3327 9.33331V6.66665C17.3327 6.48256 17.1834 6.33331 16.9993 6.33331Z" fill="#0F3041"/>
<path d="M15.6673 5.66663C15.4832 5.66663 15.334 5.81588 15.334 5.99996V9.33328C15.334 9.51737 15.4832 9.66662 15.6673 9.66662C15.8514 9.66662 16.0007 9.51737 16.0007 9.33328V5.99996C16.0007 5.81588 15.8514 5.66663 15.6673 5.66663Z" fill="#0F3041"/>
<path d="M14.3333 7.66663C14.1492 7.66663 14 7.81588 14 7.99996V9.33329C14 9.51737 14.1492 9.66662 14.3333 9.66662C14.5174 9.66662 14.6667 9.51737 14.6667 9.33329V7.99996C14.6667 7.81588 14.5174 7.66663 14.3333 7.66663Z" fill="#0F3041"/>
<path d="M18.5177 2.72264C18.3645 2.62047 18.1575 2.66181 18.0553 2.81497L16.9174 4.52163L15.866 3.7333C15.7193 3.62209 15.5102 3.65093 15.399 3.79764C15.3864 3.81434 15.3753 3.83218 15.366 3.85097L14.068 6.44729L12.7994 7.39996C12.6521 7.51042 12.6222 7.71933 12.7327 7.86662C12.8432 8.01392 13.0521 8.04375 13.1994 7.93329L14.5327 6.93329C14.5747 6.90238 14.6089 6.86209 14.6327 6.81563L15.787 4.5063L16.7994 5.26663C16.9466 5.37709 17.1556 5.3473 17.266 5.20001C17.2697 5.19509 17.2733 5.19005 17.2767 5.18497L18.61 3.18497C18.7122 3.0318 18.6708 2.82481 18.5177 2.72264Z" fill="#0F3041"/>
<path d="M11.9993 2.66669H7.99935C7.81527 2.66669 7.66602 2.81594 7.66602 3.00002C7.66602 3.1841 7.81527 3.33335 7.99935 3.33335H11.9993C12.1834 3.33335 12.3327 3.1841 12.3327 3.00002C12.3327 2.81594 12.1834 2.66669 11.9993 2.66669Z" fill="#0F3041"/>
<path d="M14 2.66669H13.3333C13.1492 2.66669 13 2.81594 13 3.00002C13 3.1841 13.1492 3.33335 13.3333 3.33335H14C14.1841 3.33335 14.3333 3.1841 14.3333 3.00002C14.3333 2.81594 14.1841 2.66669 14 2.66669Z" fill="#0F3041"/>
</svg>
