<svg width="20" height="20" viewBox="0 0 20 20" fill="none" xmlns="http://www.w3.org/2000/svg">
<g clip-path="url(#clip0)">
<path d="M11.1175 12.6736C10.9925 12.571 10.8078 12.5891 10.7052 12.7142L9.87766 13.7228L9.565 13.4516C9.44274 13.3457 9.25774 13.3588 9.15172 13.481C9.04571 13.6032 9.05887 13.7883 9.1811 13.8943L9.72122 14.3627C9.77469 14.4091 9.84293 14.4343 9.91317 14.4343C9.92141 14.4343 9.92965 14.434 9.93793 14.4333C10.0168 14.4266 10.0895 14.3883 10.1397 14.3272L11.1581 13.0859C11.2608 12.9608 11.2426 12.7762 11.1175 12.6736Z" fill="#0F3041"/>
<path d="M18.0888 16.9628C18.0384 16.949 17.9883 16.9354 17.9386 16.9215C17.8729 16.9032 17.8205 16.8102 17.7811 16.7179C18.5356 16.1947 19.0976 15.2981 19.0976 14.5163V13.8055C19.0976 12.9283 18.8229 12.1835 18.3031 11.6515C17.8366 11.174 17.2084 10.905 16.534 10.8938C16.5308 10.8938 16.5275 10.8938 16.5243 10.8938C15.85 10.905 15.2217 11.1741 14.7552 11.6515C14.2355 12.1835 13.9607 12.9283 13.9607 13.8055V14.5163C13.9607 15.2981 14.5229 16.1946 15.2777 16.7177C15.2384 16.81 15.1859 16.9031 15.1195 16.9215C15.0697 16.9355 15.0193 16.9492 14.9686 16.9631C14.7152 17.0324 14.4323 17.1098 14.1636 17.2274L12.1218 15.1158C12.4479 14.6955 12.6433 14.1654 12.6433 13.5895C12.6433 12.3224 11.7009 11.2757 10.4925 11.1368V9.10559H13.2537C13.5164 9.10559 13.73 8.8902 13.73 8.62547V8.01204C13.73 6.58965 12.6236 6.28833 11.8158 6.06829C11.7663 6.05481 11.7171 6.04141 11.6683 6.02782C11.6021 6.00946 11.5497 5.91629 11.5104 5.82364C12.2654 5.30106 12.8277 4.40473 12.8277 3.62274V2.91192C12.8277 2.03469 12.5529 1.28985 12.033 0.757896C11.5664 0.280514 10.9378 0.011412 10.263 0.00027916C10.2598 0.000240097 10.2565 0.000240097 10.2533 0.00027916C9.57891 0.011451 8.95063 0.280514 8.48418 0.757935C7.96441 1.28993 7.68969 2.03477 7.68969 2.91192V3.62282C7.68969 4.40485 8.25203 5.30122 9.00695 5.82376C8.96762 5.91637 8.91516 6.00954 8.84887 6.02794C8.8002 6.04149 8.75098 6.05485 8.70156 6.06837C7.89371 6.2884 6.78734 6.58977 6.78734 8.01212V8.62555C6.78734 8.89028 7.00102 9.10567 7.26359 9.10567H9.90656V11.142C8.71707 11.2987 7.79488 12.3361 7.79488 13.5895C7.79488 14.1659 7.99059 14.6964 8.31715 15.1169L6.33281 17.1891C5.94969 16.8848 5.45043 16.7477 5.03141 16.6332C4.9807 16.6193 4.93027 16.6055 4.87988 16.5915C4.81391 16.5731 4.76156 16.48 4.7223 16.3877C5.47711 15.8646 6.03922 14.9681 6.03922 14.1864V13.4755C6.03922 12.5984 5.76449 11.8535 5.24473 11.3215C4.77824 10.8441 4.14996 10.575 3.47563 10.5639C3.47242 10.5638 3.46914 10.5638 3.46594 10.5639C2.7916 10.575 2.16332 10.8441 1.69684 11.3215C1.17707 11.8535 0.902344 12.5984 0.902344 13.4755V14.1864C0.902344 14.9681 1.46426 15.8647 2.21891 16.3879C2.17945 16.4802 2.12703 16.5732 2.06125 16.5916C2.0116 16.6054 1.96148 16.6191 1.91109 16.6329C1.10457 16.8531 0 17.1549 0 18.5767V19.1902C0 19.4549 0.213672 19.6703 0.47625 19.6703H2.80051C2.96234 19.6703 3.09348 19.5391 3.09348 19.3773C3.09348 19.2155 2.96234 19.0843 2.80051 19.0843H0.585938V18.5767C0.585938 17.7916 1.00324 17.5218 1.71016 17.3008L3.00609 18.0776C3.17316 18.1866 3.32199 18.2411 3.47074 18.2411C3.61949 18.2411 3.76812 18.1865 3.93465 18.0775L5.23125 17.3009C5.93828 17.522 6.35566 17.7917 6.35566 18.5767V19.0843H4.07488C3.91305 19.0843 3.78191 19.2155 3.78191 19.3773C3.78191 19.5391 3.91305 19.6703 4.07488 19.6703H6.46531C6.72793 19.6703 6.94156 19.4549 6.94156 19.1902V18.5767C6.94156 18.1842 6.85707 17.8774 6.7182 17.6338L8.72906 15.5339C9.14047 15.8613 9.65754 16.0572 10.219 16.0572C10.781 16.0572 11.2985 15.861 11.7101 15.5331L13.6463 17.5354C13.3032 17.8166 13.0584 18.2375 13.0584 18.9067V19.5202C13.0584 19.7849 13.272 20.0003 13.5346 20.0003H15.9142C16.076 20.0003 16.2071 19.8691 16.2071 19.7073C16.2071 19.5455 16.076 19.4143 15.9142 19.4143H13.6443V18.9067C13.6443 18.1216 14.0617 17.852 14.7687 17.6309L16.0653 18.4075C16.2318 18.5165 16.3804 18.5711 16.5292 18.5711C16.678 18.5711 16.8268 18.5166 16.9939 18.4076L18.2898 17.6309C18.9968 17.8518 19.4141 18.1216 19.4141 18.9067V19.4143H17.2396C17.0778 19.4143 16.9466 19.5455 16.9466 19.7073C16.9466 19.8691 17.0778 20.0002 17.2396 20.0002H19.5238C19.7864 20.0002 20 19.7849 20 19.5201V18.9067C20 17.4848 18.8954 17.1831 18.0888 16.9628ZM3.47082 11.1497C4.34848 11.1665 5.28598 11.7875 5.43332 13.1066C5.30418 13.0475 5.22164 12.9616 5.13168 12.8681C4.99504 12.726 4.81766 12.5415 4.50328 12.5415C4.42797 12.5415 4.34477 12.5521 4.25246 12.5764C4.13238 12.6078 4.03062 12.6354 3.94273 12.6593C3.69445 12.7268 3.56977 12.7606 3.47078 12.7606C3.3718 12.7606 3.24711 12.7268 2.99883 12.6593C2.91094 12.6354 2.80922 12.6078 2.68945 12.5765C2.21043 12.4507 1.97863 12.6921 1.8093 12.8684C1.71953 12.9618 1.63715 13.0475 1.50828 13.1066C1.6557 11.7874 2.59316 11.1665 3.47082 11.1497ZM1.48832 14.1863V13.7272C1.88414 13.6351 2.08859 13.4233 2.23184 13.2743C2.37613 13.1241 2.39461 13.1048 2.54098 13.1432C2.65895 13.1741 2.75887 13.2012 2.84523 13.2247C3.13434 13.3032 3.29363 13.3465 3.47082 13.3465C3.64801 13.3465 3.80727 13.3032 4.09641 13.2247C4.18277 13.2012 4.28273 13.1741 4.40113 13.1431C4.5466 13.1048 4.56508 13.1241 4.70937 13.2742C4.85273 13.4233 5.05742 13.6351 5.45336 13.7272V14.1863C5.45336 14.9255 4.74457 15.8422 3.93648 16.148C3.59273 16.2782 3.34867 16.2782 3.00418 16.148C2.1966 15.8421 1.48832 14.9254 1.48832 14.1863ZM3.62832 17.578C3.62461 17.5802 3.62098 17.5825 3.61738 17.5848C3.47617 17.6781 3.46516 17.6782 3.3227 17.5845C3.3193 17.5823 3.31582 17.5801 3.3123 17.578L2.43449 17.0518C2.57852 16.9489 2.67145 16.8022 2.73367 16.6705C2.75469 16.6791 2.77562 16.688 2.79676 16.696C3.03625 16.7865 3.25348 16.8317 3.47066 16.8317C3.68789 16.8317 3.90496 16.7864 4.14387 16.6959C4.16516 16.6879 4.18625 16.679 4.20742 16.6703C4.26953 16.802 4.36238 16.9489 4.5066 17.0519L3.62832 17.578ZM10.2581 0.586217C11.1363 0.602974 12.0743 1.22387 12.2217 2.54317C12.0923 2.48395 12.0097 2.39786 11.9197 2.30403C11.7832 2.16169 11.6061 1.97696 11.2914 1.97696C11.216 1.97696 11.1327 1.98754 11.0403 2.01192C10.9231 2.04282 10.8233 2.07008 10.7368 2.09372C10.4851 2.16254 10.3588 2.19712 10.2581 2.19712C10.1585 2.19712 10.0325 2.16266 9.78148 2.09399C9.69481 2.07028 9.59473 2.0429 9.47691 2.01184C8.99828 1.8859 8.76648 2.1277 8.59715 2.30411C8.50723 2.39778 8.42469 2.48376 8.29562 2.54294C8.44305 1.22387 9.38051 0.603014 10.2581 0.586217ZM8.27563 3.62282V3.1636C8.67176 3.07145 8.87645 2.85922 9.01984 2.70985C9.16406 2.55958 9.18262 2.54028 9.3277 2.57844C9.44336 2.60895 9.54172 2.63586 9.62691 2.65915C9.91898 2.73899 10.0798 2.78301 10.2581 2.78301C10.4374 2.78301 10.5987 2.73891 10.8914 2.65887C10.9764 2.63563 11.0745 2.60883 11.1895 2.57848C11.3346 2.54028 11.353 2.55958 11.4968 2.70958C11.6402 2.85907 11.845 3.07149 12.2417 3.16364V3.62282C12.2417 4.34907 11.5188 5.28344 10.7248 5.58333C10.3807 5.71372 10.1367 5.71372 9.79223 5.58325C8.99848 5.28344 8.27563 4.34907 8.27563 3.62282ZM11.2944 6.48794L10.4168 7.01333C10.413 7.01555 10.4094 7.01786 10.4058 7.02024C10.2642 7.1138 10.2532 7.1138 10.1116 7.02024C10.108 7.01782 10.1043 7.01551 10.1005 7.01325L9.22262 6.48813C9.36691 6.38505 9.45988 6.23813 9.52207 6.10598C9.54301 6.11458 9.56387 6.12333 9.58496 6.1313C9.8243 6.22196 10.0415 6.26727 10.2588 6.26727C10.4759 6.26727 10.6931 6.22196 10.9322 6.13137C10.9534 6.12337 10.9743 6.11458 10.9953 6.10594C11.0575 6.23805 11.1503 6.38485 11.2944 6.48794ZM7.37328 8.51969V8.01212C7.37328 7.2277 7.79051 6.95778 8.49734 6.73708L9.79434 7.5129C9.96117 7.62208 10.1099 7.67669 10.2587 7.67669C10.4075 7.67669 10.5562 7.62208 10.723 7.51286L12.0193 6.73688C12.7266 6.95762 13.1441 7.22747 13.1441 8.01212V8.51969H7.37328ZM10.2191 15.4713C9.20547 15.4713 8.38082 14.6271 8.38082 13.5895C8.38082 12.5513 9.20543 11.7066 10.2191 11.7066C11.2327 11.7066 12.0573 12.5513 12.0573 13.5895C12.0573 14.6271 11.2327 15.4713 10.2191 15.4713ZM16.5292 11.4797C17.4068 11.4965 18.3443 12.1174 18.4917 13.4365C18.3628 13.3775 18.2804 13.2917 18.1907 13.1983C18.0213 13.022 17.7895 12.7806 17.3109 12.9063C17.1908 12.9377 17.089 12.9654 17.0011 12.9893C16.7529 13.0568 16.6282 13.0906 16.5292 13.0906C16.4302 13.0906 16.3055 13.0567 16.0572 12.9892C15.9693 12.9654 15.8676 12.9377 15.748 12.9065C15.2697 12.7806 15.0377 13.0219 14.8683 13.1981C14.7783 13.2916 14.6958 13.3775 14.5666 13.4366C14.7141 12.1175 15.6516 11.4965 16.5292 11.4797ZM14.5467 14.5163V14.0571C14.9427 13.9651 15.1473 13.7532 15.2907 13.6041C15.435 13.4541 15.4535 13.4348 15.5994 13.4732C15.7173 13.504 15.8172 13.5312 15.9036 13.5547C16.1927 13.6332 16.352 13.6765 16.5292 13.6765C16.7064 13.6765 16.8657 13.6332 17.1548 13.5547C17.2412 13.5312 17.3411 13.504 17.4594 13.4731C17.6054 13.4348 17.624 13.454 17.7682 13.6042C17.9114 13.7533 18.1159 13.9651 18.5117 14.0571V14.5163C18.5117 15.2553 17.8034 16.172 16.9962 16.4778C16.6513 16.6081 16.4073 16.6081 16.0635 16.4779C15.2555 16.1721 14.5467 15.2555 14.5467 14.5163ZM16.6877 17.908C16.6842 17.9101 16.6807 17.9122 16.6773 17.9145C16.5349 18.0082 16.5239 18.0082 16.3826 17.9149C16.379 17.9125 16.3754 17.9102 16.3717 17.908L15.4933 17.3819C15.6376 17.2788 15.7304 17.132 15.7925 17.0004C15.8137 17.009 15.8347 17.0179 15.856 17.0259C16.095 17.1165 16.312 17.1617 16.5293 17.1617C16.7464 17.1617 16.9639 17.1165 17.2035 17.0259C17.2245 17.018 17.2454 17.0092 17.2663 17.0006C17.3286 17.1322 17.4215 17.279 17.5655 17.3819L16.6877 17.908Z" fill="#0F3041"/>
</g>
<defs>
<clipPath id="clip0">
<rect width="20" height="20" fill="white"/>
</clipPath>
</defs>
</svg>
