<svg width="16" height="17" viewBox="0 0 16 17" fill="none" xmlns="http://www.w3.org/2000/svg">
<path d="M10.9528 10.1724H10.2622L10.0174 9.92818C10.8742 8.89723 11.3899 7.55881 11.3899 6.10282C11.3899 2.85624 8.84602 0.224609 5.70766 0.224609C2.5693 0.224609 0.0253906 2.85624 0.0253906 6.10282C0.0253906 9.3494 2.5693 11.981 5.70766 11.981C7.11512 11.981 8.40893 11.4475 9.40551 10.5612L9.64154 10.8144V11.5289L14.0125 16.0415L15.3151 14.6941L10.9528 10.1724ZM5.70766 10.1724C3.53091 10.1724 1.77378 8.35463 1.77378 6.10282C1.77378 3.85101 3.53091 2.03329 5.70766 2.03329C7.88441 2.03329 9.64154 3.85101 9.64154 6.10282C9.64154 8.35463 7.88441 10.1724 5.70766 10.1724Z" fill="#FF3355"/>
</svg>
