<svg width="19" height="19" viewBox="0 0 19 19" fill="none" xmlns="http://www.w3.org/2000/svg">
<path d="M13.0931 11.5833H12.2702L11.9785 11.3021C12.9993 10.1146 13.6139 8.57292 13.6139 6.89583C13.6139 3.15625 10.5827 0.125 6.8431 0.125C3.10352 0.125 0.0722656 3.15625 0.0722656 6.89583C0.0722656 10.6354 3.10352 13.6667 6.8431 13.6667C8.52018 13.6667 10.0618 13.0521 11.2493 12.0313L11.5306 12.3229V13.1458L16.7389 18.3438L18.291 16.7917L13.0931 11.5833ZM6.8431 11.5833C4.24935 11.5833 2.1556 9.48958 2.1556 6.89583C2.1556 4.30208 4.24935 2.20833 6.8431 2.20833C9.43685 2.20833 11.5306 4.30208 11.5306 6.89583C11.5306 9.48958 9.43685 11.5833 6.8431 11.5833Z" fill="#FF3355"/>
</svg>
