<svg width="24" height="24" viewBox="0 0 24 24" fill="none" xmlns="http://www.w3.org/2000/svg">
<path d="M15.5 13.9999H14.71L14.43 13.7299C15.41 12.5899 16 11.1099 16 9.49994C16 5.90994 13.09 2.99994 9.5 2.99994C5.91 2.99994 3 5.90994 3 9.49994C3 13.0899 5.91 15.9999 9.5 15.9999C11.11 15.9999 12.59 15.4099 13.73 14.4299L14 14.7099V15.4999L19 20.4899L20.49 18.9999L15.5 13.9999ZM9.5 13.9999C7.01 13.9999 5 11.9899 5 9.49994C5 7.00994 7.01 4.99994 9.5 4.99994C11.99 4.99994 14 7.00994 14 9.49994C14 11.9899 11.99 13.9999 9.5 13.9999Z" fill="#33282A"/>
</svg>
