<svg width="20" height="20" viewBox="0 0 20 20" fill="none" xmlns="http://www.w3.org/2000/svg">
<g clip-path="url(#clip0)">
<path d="M15.1327 2.2165L10.1327 0.0278283C10.0477 -0.0092761 9.95103 -0.0092761 9.86602 0.0278283L4.86602 2.2165C4.7446 2.26949 4.66608 2.38935 4.66602 2.52183V7.75516C4.66782 8.93127 5.23298 10.0353 6.18602 10.7245L9.64168 13.2168C9.85511 13.3713 10.1436 13.3713 10.357 13.2168L13.8127 10.7248C14.7657 10.0357 15.3309 8.9316 15.3327 7.7555V2.52183C15.3326 2.38935 15.2541 2.26949 15.1327 2.2165ZM14.666 7.7555C14.6645 8.71747 14.2022 9.62048 13.4227 10.1842L9.99935 12.6532L6.57602 10.1842C5.7965 9.62048 5.33421 8.71747 5.33268 7.7555V2.73983L9.99935 0.697162L14.666 2.73983V7.7555Z" fill="#0F3041"/>
<path d="M9.86667 1.48382L6.2 3.08916C6.07858 3.14215 6.00007 3.26201 6 3.39449V7.75616C6.00103 8.50404 6.36049 9.20611 6.96667 9.64416L9.805 11.6915C9.92144 11.7755 10.0786 11.7755 10.195 11.6915L13.0333 9.64416C13.6395 9.20611 13.999 8.50404 14 7.75616V3.39449C13.9999 3.26201 13.9214 3.14215 13.8 3.08916L10.1333 1.48382C10.0483 1.44672 9.95168 1.44672 9.86667 1.48382ZM13.3333 3.61216V7.75616C13.3323 8.28984 13.0758 8.79075 12.6433 9.10349L10 11.0102L7.35667 9.10349C6.92422 8.79075 6.66769 8.28984 6.66667 7.75616V3.61216L10 2.15316L13.3333 3.61216Z" fill="#0F3041"/>
<path d="M2.76171 11.0659L2.04071 9.38127C1.88739 9.03395 1.56041 8.79481 1.18296 8.75393C0.805509 8.71306 0.434921 8.87665 0.210795 9.1831C-0.013331 9.48955 -0.0569454 9.89228 0.0963811 10.2396L1.40271 13.1133C1.57895 13.5023 1.82412 13.8562 2.12638 14.1579L4.18071 16.2126C4.06502 16.3352 4.00041 16.4973 4.00005 16.6659V19.3326C4.00005 19.7008 4.29852 19.9993 4.66671 19.9993H8.33338C8.70157 19.9993 9.00005 19.7008 9.00005 19.3326V16.6659C9.00005 16.2977 8.70157 15.9993 8.33338 15.9993V15.3789C8.3436 14.5895 8.08604 13.8199 7.60272 13.1956C7.31935 12.8229 6.93316 12.5412 6.49172 12.3853C5.78966 12.0903 5.14401 11.676 4.58338 11.1606C4.063 10.732 3.32372 10.6936 2.76171 11.0659ZM8.33338 19.3326H4.66671V16.6659H8.33338V19.3326ZM7.08238 13.6119C7.47092 14.1182 7.67685 14.7409 7.66672 15.3789V15.9993H4.91038L2.59771 13.6866C2.35209 13.4413 2.15278 13.1537 2.00938 12.8376L0.703048 9.96394C0.647299 9.84129 0.657674 9.69871 0.730593 9.58543C0.803513 9.47214 0.928988 9.40365 1.06371 9.4036C1.22226 9.40348 1.36555 9.49808 1.42771 9.64394L2.17338 11.3829C2.37139 11.8469 2.6568 12.2685 3.01405 12.6246L4.53671 14.1476C4.62041 14.2343 4.74434 14.269 4.86088 14.2385C4.97743 14.208 5.06844 14.117 5.09895 14.0004C5.12945 13.8839 5.0947 13.76 5.00805 13.6763L3.48538 12.1533C3.33227 12.0005 3.1946 11.8331 3.07438 11.6533C3.39449 11.4069 3.84232 11.4144 4.15405 11.6713C4.77716 12.2431 5.49734 12.6992 6.28071 13.0179C6.59989 13.134 6.87842 13.3404 7.08238 13.6119Z" fill="#0F3041"/>
<path d="M7.33463 17.667H7.0013C6.81721 17.667 6.66797 17.8162 6.66797 18.0003C6.66797 18.1844 6.81721 18.3337 7.0013 18.3337H7.33463C7.51873 18.3337 7.66796 18.1844 7.66796 18.0003C7.66796 17.8162 7.51873 17.667 7.33463 17.667Z" fill="#0F3041"/>
<path d="M18.5974 13.1136L19.9037 10.2399C20.0643 9.89142 20.0246 9.4834 19.7997 9.17244C19.5749 8.86148 19.1999 8.6959 18.8186 8.73924C18.4373 8.78257 18.109 9.0281 17.9597 9.38158L17.2404 11.0599C16.6764 10.6894 15.9367 10.73 15.4167 11.1599C14.8561 11.6753 14.2104 12.0896 13.5083 12.3846C13.0669 12.5405 12.6807 12.8222 12.3973 13.1949C11.9138 13.8195 11.6562 14.5895 11.6667 15.3792V15.9996C11.2985 15.9996 11 16.2981 11 16.6663V19.3329C11 19.7011 11.2985 19.9996 11.6667 19.9996H15.3333C15.7015 19.9996 16 19.7011 16 19.3329V16.6663C15.9997 16.4977 15.935 16.3355 15.8193 16.2129L17.8737 14.1582C18.1759 13.8565 18.4211 13.5026 18.5974 13.1136ZM15.3333 19.3329H11.6667V16.6663H15.3333V19.3329ZM15.0897 15.9996H12.3333V15.3792C12.3233 14.7413 12.5292 14.1187 12.9177 13.6126C13.1212 13.3412 13.3991 13.1347 13.7177 13.0182C14.5012 12.6996 15.2215 12.2435 15.8447 11.6716C16.1561 11.4128 16.6052 11.404 16.9264 11.6506C16.8058 11.8317 16.6674 12.0003 16.5134 12.1539L14.9907 13.6769C14.8644 13.8077 14.8662 14.0156 14.9947 14.1442C15.1233 14.2728 15.3312 14.2746 15.462 14.1482L16.9847 12.6252C17.3419 12.2691 17.6273 11.8475 17.8254 11.3836L18.571 9.64425C18.6334 9.49858 18.7766 9.40415 18.935 9.40425C19.0698 9.4043 19.1952 9.47278 19.2681 9.58607C19.3411 9.69936 19.3514 9.84193 19.2957 9.96458L17.9894 12.8382C17.846 13.1544 17.6466 13.442 17.401 13.6872L15.0897 15.9996Z" fill="#0F3041"/>
<path d="M13.0006 17.667H12.6673C12.4832 17.667 12.334 17.8162 12.334 18.0003C12.334 18.1844 12.4832 18.3337 12.6673 18.3337H13.0006C13.1847 18.3337 13.334 18.1844 13.334 18.0003C13.334 17.8162 13.1847 17.667 13.0006 17.667Z" fill="#0F3041"/>
<path d="M8.19937 7.06646C8.05209 6.956 7.84316 6.98585 7.7327 7.13313C7.62225 7.2804 7.65209 7.48934 7.79937 7.59979L9.1327 8.59979C9.1904 8.64307 9.26058 8.66646 9.3327 8.66646C9.35157 8.6664 9.37041 8.66484 9.38904 8.66179C9.47931 8.6463 9.55924 8.59434 9.61004 8.51813L12.2767 4.51813C12.3428 4.41905 12.351 4.29223 12.2982 4.18545C12.2455 4.07868 12.1398 4.00815 12.0209 4.00046C11.9021 3.99276 11.7881 4.04905 11.722 4.14813L9.2507 7.85513L8.19937 7.06646Z" fill="#0F3041"/>
</g>
<defs>
<clipPath id="clip0">
<rect width="20" height="20" fill="white"/>
</clipPath>
</defs>
</svg>
