<svg width="18" height="18" viewBox="0 0 18 18" fill="none" xmlns="http://www.w3.org/2000/svg">
<path d="M3.21484 5.14369H14.7863M6.42913 5.14369V3.85798C6.42913 3.51699 6.56459 3.18996 6.80571 2.94884C7.04683 2.70772 7.37385 2.57227 7.71484 2.57227H10.2863C10.6273 2.57227 10.9543 2.70772 11.1954 2.94884C11.4365 3.18996 11.572 3.51699 11.572 3.85798V5.14369M13.5006 5.14369V14.1437C13.5006 14.4847 13.3651 14.8117 13.124 15.0528C12.8829 15.294 12.5558 15.4294 12.2148 15.4294H5.78627C5.44528 15.4294 5.11825 15.294 4.87714 15.0528C4.63602 14.8117 4.50056 14.4847 4.50056 14.1437V5.14369H13.5006Z" stroke="#C4C4C4" stroke-linecap="round" stroke-linejoin="round"/>
</svg>
