<svg width="23" height="22" viewBox="0 0 23 22" fill="none" xmlns="http://www.w3.org/2000/svg">
<g clip-path="url(#clip0)">
<path d="M15.166 19.25V17.4167C15.166 16.4442 14.7797 15.5116 14.0921 14.8239C13.4044 14.1363 12.4718 13.75 11.4993 13.75H5.08268C4.11022 13.75 3.17759 14.1363 2.48996 14.8239C1.80232 15.5116 1.41602 16.4442 1.41602 17.4167V19.25" stroke="#466EFE" stroke-width="2" stroke-linecap="round" stroke-linejoin="round"/>
<path d="M8.29167 10.0833C10.3167 10.0833 11.9583 8.44171 11.9583 6.41667C11.9583 4.39162 10.3167 2.75 8.29167 2.75C6.26662 2.75 4.625 4.39162 4.625 6.41667C4.625 8.44171 6.26662 10.0833 8.29167 10.0833Z" stroke="#466EFE" stroke-width="2" stroke-linecap="round" stroke-linejoin="round"/>
<path d="M16.084 10.0833L17.9173 11.9167L21.584 8.25" stroke="#466EFE" stroke-width="2" stroke-linecap="round" stroke-linejoin="round"/>
</g>
<defs>
<clipPath id="clip0">
<rect width="22" height="22" fill="white" transform="translate(0.5)"/>
</clipPath>
</defs>
</svg>
