<svg width="20" height="22" viewBox="0 0 20 22" fill="none" xmlns="http://www.w3.org/2000/svg">
<g clip-path="url(#clip0)">
<path d="M19.2449 10.2067C19.0719 9.94711 14.9493 3.85156 9.68391 3.85156C4.41856 3.85156 0.295741 9.94712 0.122904 10.2064C-0.040968 10.4526 -0.040968 10.7866 0.122904 11.0328C0.295741 11.2924 4.41856 17.3879 9.68391 17.3879C14.9493 17.3879 19.0719 11.2923 19.2449 11.033C19.409 10.7869 19.409 10.4526 19.2449 10.2067ZM9.68391 15.9876C5.80542 15.9876 2.44624 11.9419 1.45185 10.6193C2.44495 9.29549 5.7971 5.25187 9.68391 5.25187C13.5622 5.25187 16.9212 9.2969 17.916 10.6202C16.9229 11.944 13.5707 15.9876 9.68391 15.9876Z" fill="#FF3355"/>
<path d="M9.68456 6.41797C7.57216 6.41797 5.85352 8.30256 5.85352 10.6189C5.85352 12.9353 7.57216 14.8199 9.68456 14.8199C11.797 14.8199 13.5156 12.9353 13.5156 10.6189C13.5156 8.30256 11.797 6.41797 9.68456 6.41797ZM9.68456 13.4195C8.27622 13.4195 7.13056 12.1632 7.13056 10.6189C7.13056 9.07464 8.27625 7.81832 9.68456 7.81832C11.0929 7.81832 12.2386 9.07464 12.2386 10.6189C12.2386 12.1632 11.0929 13.4195 9.68456 13.4195Z" fill="#FF3355"/>
</g>
<defs>
<clipPath id="clip0">
<rect width="19.368" height="21.2381" fill="white"/>
</clipPath>
</defs>
</svg>
